<svg width="334" height="192" viewBox="0 0 334 192" fill="none" xmlns="http://www.w3.org/2000/svg">
<path d="M13.6336 103.831C8.62386 103.831 5.35082 100.625 5.35082 95.0807V38.771C5.35082 33.3604 8.62386 30.2878 13.2996 30.2878C17.9754 30.2878 21.3153 33.3604 21.3153 38.771V43.9811H21.6493C24.7219 35.7651 32.2032 30.3546 41.8219 30.3546C51.8414 30.3546 58.9887 35.4979 61.5938 44.5823H61.9946C65.4012 35.8319 73.8176 30.3546 84.0375 30.3546C97.9981 30.3546 107.149 39.7729 107.149 53.9338V95.0807C107.149 100.625 103.809 103.831 98.8664 103.831C93.8567 103.831 90.5168 100.625 90.5168 95.0807V58.0085C90.5168 49.3249 85.9746 44.3819 77.8254 44.3819C69.8098 44.3819 64.3325 50.26 64.3325 58.7432V95.0807C64.3325 100.625 61.193 103.831 56.25 103.831C51.2403 103.831 48.1676 100.625 48.1676 95.0807V57.1401C48.1676 49.2581 43.3582 44.3819 35.6098 44.3819C27.5942 44.3819 21.9832 50.594 21.9832 59.144V95.0807C21.9832 100.625 18.5766 103.831 13.6336 103.831ZM151.836 103.898C131.063 103.898 117.57 90.071 117.57 67.0928C117.57 44.2483 131.196 30.221 151.836 30.221C172.477 30.221 186.103 44.1815 186.103 67.0928C186.103 90.071 172.61 103.898 151.836 103.898ZM151.836 90.7389C162.39 90.7389 169.204 82.1889 169.204 67.0928C169.204 52.0635 162.39 43.4467 151.836 43.4467C141.349 43.4467 134.469 52.0635 134.469 67.0928C134.469 82.1889 141.282 90.7389 151.836 90.7389ZM227.918 103.898C207.211 103.898 193.852 89.8706 193.852 67.1596C193.852 44.5823 207.144 30.221 227.784 30.221C241.678 30.221 253.501 37.3682 256.908 47.321C257.442 48.7237 257.776 50.1264 257.776 51.3288C257.776 55.4702 254.637 58.0085 250.629 58.0085C247.289 58.0085 245.285 56.6057 243.348 53.2659C239.808 46.7866 235.132 43.7139 228.252 43.7139C217.564 43.7139 210.751 52.5979 210.751 67.0928C210.751 81.7881 217.631 90.4717 228.185 90.4717C235.533 90.4717 240.075 87.0651 243.281 81.3874C245.552 77.6467 247.356 76.244 250.963 76.244C254.904 76.244 257.977 78.9159 257.977 83.0573C257.977 84.3264 257.643 85.7292 256.975 87.3323C253.034 97.0178 241.277 103.898 227.918 103.898ZM278.016 103.831C273.139 103.831 269.666 100.692 269.666 95.0807V13.5217C269.666 7.9108 273.139 4.77135 278.016 4.77135C282.892 4.77135 286.298 7.9108 286.298 13.5217V60.9475H286.499L314.286 33.494C316.424 31.2229 318.227 30.2878 320.766 30.2878C324.907 30.2878 328.047 33.4272 328.047 37.435C328.047 39.9065 327.312 41.4428 325.041 43.5803L304.868 62.6842L327.045 90.4049C328.781 92.8096 329.316 94.2792 329.316 96.4167C329.316 100.758 326.043 103.831 321.434 103.831C318.161 103.831 316.223 102.696 313.819 99.2221L292.577 72.303L286.298 78.1811V95.0807C286.298 100.692 282.892 103.831 278.016 103.831ZM13.6336 185.831C8.62386 185.831 5.35082 182.625 5.35082 177.081V120.771C5.35082 115.36 8.62386 112.288 13.2996 112.288C17.9754 112.288 21.3153 115.36 21.3153 120.771V125.981H21.6493C24.7219 117.765 32.2032 112.355 41.8219 112.355C51.8414 112.355 58.9887 117.498 61.5938 126.582H61.9946C65.4012 117.832 73.8176 112.355 84.0375 112.355C97.9981 112.355 107.149 121.773 107.149 135.934V177.081C107.149 182.625 103.809 185.831 98.8664 185.831C93.8567 185.831 90.5168 182.625 90.5168 177.081V140.008C90.5168 131.325 85.9746 126.382 77.8254 126.382C69.8098 126.382 64.3325 132.26 64.3325 140.743V177.081C64.3325 182.625 61.193 185.831 56.25 185.831C51.2403 185.831 48.1676 182.625 48.1676 177.081V139.14C48.1676 131.258 43.3582 126.382 35.6098 126.382C27.5942 126.382 21.9832 132.594 21.9832 141.144V177.081C21.9832 182.625 18.5766 185.831 13.6336 185.831ZM151.836 185.898C131.063 185.898 117.57 172.071 117.57 149.093C117.57 126.248 131.196 112.221 151.836 112.221C172.477 112.221 186.103 126.182 186.103 149.093C186.103 172.071 172.61 185.898 151.836 185.898ZM151.836 172.739C162.39 172.739 169.204 164.189 169.204 149.093C169.204 134.064 162.39 125.447 151.836 125.447C141.349 125.447 134.469 134.064 134.469 149.093C134.469 164.189 141.282 172.739 151.836 172.739ZM227.918 185.898C207.211 185.898 193.852 171.871 193.852 149.16C193.852 126.582 207.144 112.221 227.784 112.221C241.678 112.221 253.501 119.368 256.908 129.321C257.442 130.724 257.776 132.126 257.776 133.329C257.776 137.47 254.637 140.008 250.629 140.008C247.289 140.008 245.285 138.606 243.348 135.266C239.808 128.787 235.132 125.714 228.252 125.714C217.564 125.714 210.751 134.598 210.751 149.093C210.751 163.788 217.631 172.472 228.185 172.472C235.533 172.472 240.075 169.065 243.281 163.387C245.552 159.647 247.356 158.244 250.963 158.244C254.904 158.244 257.977 160.916 257.977 165.057C257.977 166.326 257.643 167.729 256.975 169.332C253.034 179.018 241.277 185.898 227.918 185.898ZM278.016 185.831C273.139 185.831 269.666 182.692 269.666 177.081V95.5217C269.666 89.9108 273.139 86.7713 278.016 86.7713C282.892 86.7713 286.298 89.9108 286.298 95.5217V142.948H286.499L314.286 115.494C316.424 113.223 318.227 112.288 320.766 112.288C324.907 112.288 328.047 115.427 328.047 119.435C328.047 121.907 327.312 123.443 325.041 125.58L304.868 144.684L327.045 172.405C328.781 174.81 329.316 176.279 329.316 178.417C329.316 182.758 326.043 185.831 321.434 185.831C318.161 185.831 316.223 184.696 313.819 181.222L292.577 154.303L286.298 160.181V177.081C286.298 182.692 282.892 185.831 278.016 185.831Z" fill="black"/>
<path d="M181.917 55.0077L181.739 53.5233L181.591 52.0092C181.558 51.7322 181.451 51.505 181.264 51.2671L180.344 50.0796L179.394 48.8921C178.718 48.0334 178.087 47.1608 177.494 46.2796L176.663 45.0624L175.861 43.8452C175.55 43.3833 175.173 42.9946 174.733 42.6577L172.417 40.8764C171.647 40.287 170.866 39.7142 170.102 39.1249L168.973 38.2342L167.816 37.3436C167.285 36.9347 166.713 36.5897 166.094 36.3046L164.758 35.6811L163.422 35.0874C162.995 34.8919 162.562 34.7788 162.086 34.7608L160.631 34.7014L159.147 34.6421C158.066 34.6016 156.995 34.5389 155.941 34.4046L154.516 34.1967L153.12 34.0186C152.159 33.8961 151.175 33.7771 150.181 33.6327L148.697 33.4249L147.242 33.1874C146.819 33.1258 146.42 33.1847 146.025 33.3061L144.63 33.7217L143.234 34.1671C142.672 34.34 142.142 34.5772 141.661 34.9092L140.444 35.7405L139.256 36.6014C138.523 37.1095 137.823 37.6255 137.178 38.1452L136.08 39.0061L135.011 39.8671C134.23 40.4964 133.424 41.0989 132.606 41.678L130.35 43.2811C129.664 43.7672 128.981 44.3147 128.272 44.8842L125.956 46.7249C125.406 47.1677 124.891 47.6835 124.413 48.2686L123.463 49.4264L122.483 50.6139C122.355 50.7706 122.315 50.9115 122.305 51.1186L122.216 52.6327L122.156 54.1467C122.12 54.8753 122.151 55.5894 122.275 56.2842L122.809 59.253C123.136 61.0832 122.843 62.8756 122.008 64.5077L121.295 65.903L120.583 67.2686C120.348 67.7272 120.245 68.149 120.227 68.5452L120.167 70.0296L120.108 71.4842C120.094 71.8041 120.147 72.1172 120.316 72.4639L120.998 73.8296L121.652 75.1952C122.105 76.1187 122.548 77.0172 122.958 77.8967L123.552 79.1733L124.145 80.4796C124.738 81.7556 125.083 83.1095 125.214 84.5171L125.363 86.0608L125.511 87.5749C125.552 88.0084 125.662 88.3754 125.867 88.703L126.669 89.9499L127.381 91.078L127.411 91.1077L130.677 91.7608C132.076 92.043 133.42 92.5086 134.625 93.2155L136.941 94.5811C137.621 94.981 138.326 95.3527 139.048 95.7092L141.483 96.8967C141.948 97.1259 142.442 97.2866 142.967 97.3717L144.303 97.6092L145.639 97.8171C146.813 98.0073 147.977 98.3282 149.113 98.7671L151.844 99.8358C152.4 100.051 153.062 100.345 153.655 100.756C153.763 100.831 153.989 101.039 154.278 101.32L155.08 101.201C155.46 101.139 155.945 100.972 156.505 100.667L157.811 99.9546L159.147 99.2421C160.135 98.7043 161.122 98.2224 162.116 97.8171L163.392 97.2827L164.698 96.778C165.553 96.4294 166.41 96.0633 167.281 95.7092L168.617 95.1749L169.923 94.6405C170.23 94.5147 170.482 94.3273 170.695 94.0764L171.586 93.0077L172.506 91.9389C173.52 90.7492 174.787 89.8363 176.188 89.178L177.672 88.4952L178.83 87.9311L179.038 86.8327L179.305 85.3186C179.459 84.4363 179.581 83.5826 179.631 82.7655L179.809 79.8561C179.889 78.5564 180.133 77.2817 180.552 76.0561L180.997 74.7202L181.472 73.3842C181.647 72.8734 181.735 72.3452 181.739 71.8108V68.9905C181.747 67.997 181.78 66.9909 181.828 65.9921L181.917 64.5671L181.977 63.1421C182.019 62.2535 182.033 61.3529 182.036 60.4405V58.9858L182.066 57.5311C182.068 56.7102 182.012 55.8607 181.917 55.0077ZM43.9594 108.03C45.2819 108.106 46.5996 108.368 47.8485 108.801L50.5797 109.751C51.6058 110.107 52.6145 110.513 53.6079 110.969L54.9438 111.562L56.2797 112.186C57.6937 112.834 58.9166 113.775 59.9016 114.976L60.8516 116.134L61.7719 117.262C61.9197 117.443 62.0704 117.642 62.2172 117.826C62.2641 117.787 62.3187 117.746 62.3657 117.708L63.4938 116.787L64.6516 115.867C65.5962 115.106 66.5931 114.434 67.65 113.878L70.1438 112.572C71.0886 112.075 72.0667 111.633 73.0532 111.236L74.3594 110.701L75.636 110.197C77.0085 109.644 78.4634 109.385 79.9407 109.455L81.336 109.544L82.761 109.603C83.424 109.634 84.1059 109.595 84.8094 109.484L86.2641 109.247L87.6891 109.039C88.8882 108.85 90.1159 108.768 91.3704 108.801L92.9438 108.831L94.5172 108.89C96.3617 108.942 97.934 109.677 99.0891 110.909L100.098 112.305L100.9 113.73L101.702 115.184C102.064 115.827 102.44 116.255 102.77 116.55L103.839 117.5L104.878 118.42C106.106 119.512 106.964 120.885 107.431 122.458L107.847 123.794L108.233 125.159C108.518 126.118 108.773 127.082 109.005 128.039L109.658 130.711C109.842 131.469 110.081 132.262 110.37 133.086L110.875 134.511L111.38 135.906C111.806 137.12 112.088 138.38 112.211 139.647L112.33 141.072L112.478 142.497C112.631 144.096 112.36 145.657 111.766 147.128L110.638 149.978C110.48 150.367 110.456 150.67 110.489 150.928L110.845 153.778C110.93 154.428 111.095 155.102 111.35 155.797L111.884 157.222L112.389 158.647C112.978 160.253 113.128 161.945 112.745 163.634L112.092 166.484C111.841 167.586 111.504 168.693 111.113 169.78L110.608 171.205L110.073 172.63C109.816 173.343 109.649 174.03 109.569 174.648L109.213 177.38C109.079 178.417 108.912 179.415 108.678 180.348L108.084 182.664C107.595 184.614 106.313 186.099 104.522 186.88L103.394 187.355L102.266 187.859C100.755 188.515 99.1331 188.647 97.5454 188.275L95.111 187.681C93.429 187.283 91.9571 186.338 90.9547 184.831L89.6485 182.872C88.8847 181.721 88.4226 180.428 88.1938 179.101L87.9563 177.795L87.7485 176.459C87.5709 175.43 87.4294 174.362 87.3625 173.283L87.0063 167.583L86.9469 166.158L86.8579 164.733C86.7922 163.595 86.8146 162.455 86.9172 161.319L87.1547 158.469C87.183 158.156 87.1497 157.806 86.9766 157.37L85.8485 154.52C85.0669 152.556 85.1647 150.486 86.0563 148.612L87.4219 145.762C87.6174 145.347 87.6456 145.041 87.6297 144.812L87.4516 141.962C87.3847 141 87.2982 140.022 87.2438 139.023L87.1844 137.539L87.0954 136.055C87.0683 135.558 86.9339 135.023 86.6797 134.451L86.0563 132.997L85.4032 131.542C85.3345 131.391 85.2599 131.31 85.0766 131.215L83.6516 130.473L82.1969 129.761C81.6891 129.502 81.2098 129.373 80.7422 129.345L79.2282 129.256L77.9219 129.137L76.9422 130.176L75.8438 131.275C74.8845 132.262 73.8113 133.117 72.6079 133.739L71.45 134.333L70.2625 134.956C69.8642 135.164 69.3665 135.506 68.7782 136.055L67.5907 137.183L66.6704 137.984L66.8485 139.053L67.1157 140.597C67.2238 141.253 67.4091 141.896 67.7094 142.526L69.075 145.376C70.1117 147.549 69.9047 149.846 68.7188 151.819L66.9969 154.669C66.658 155.231 66.5372 155.688 66.4922 156.034L66.136 158.884C66.0671 159.431 66.059 159.987 66.1657 160.547L66.4625 161.972L66.7297 163.397C66.925 164.414 67.0985 165.435 67.2344 166.455L67.5907 169.305C67.7031 170.149 67.8511 171.009 68.036 171.858L68.3625 173.283L68.6594 174.708C68.95 176.041 69.0414 177.43 68.9563 178.834L68.8672 180.467L68.7485 182.13C68.6047 184.503 67.4089 186.424 65.5719 187.711L62.6032 189.789C61.6659 190.444 60.4913 190.946 59.1297 191.006C57.7435 191.067 56.4992 190.655 55.4782 189.997L54.0829 189.076L52.6579 188.156C51.8407 187.629 51.0814 187.228 50.4016 186.909L49.125 186.286L47.8188 185.692C45.9055 184.794 44.6464 183.197 44.0485 181.298L43.6032 179.814L43.1282 178.33C42.6287 176.739 42.5385 175.081 42.9204 173.431L43.5735 170.581C43.827 169.487 44.1373 168.396 44.5235 167.315L45.0282 165.89L45.5625 164.465C45.7547 163.928 45.8087 163.437 45.8 162.981L45.7407 160.131C45.7193 159.126 45.7179 158.109 45.7407 157.103L45.8 154.253C45.8248 153.163 45.9205 152.074 46.0672 150.987L46.275 149.562L46.4532 148.137C46.4963 147.818 46.4752 147.474 46.3344 147.069L45.325 144.219C44.9874 143.26 44.6583 142.312 44.3454 141.398L43.8704 140.033L43.425 138.697C43.0491 137.599 42.7479 136.473 42.5641 135.342L42.3563 133.947L42.1188 132.581H42.0891L40.9907 131.631L39.8922 130.711C39.5637 130.434 39.1644 130.205 38.675 130.058L37.2204 129.642L35.7657 129.197C35.5394 129.13 35.3537 129.123 35.1125 129.197L33.6579 129.642L32.2032 130.117C32.1065 130.147 32.0486 130.161 32.025 130.176C32.0115 130.186 31.9726 130.212 31.936 130.265L31.1047 131.483L30.3032 132.7C29.7149 133.566 29.1017 134.381 28.4922 135.164L27.661 136.262L26.8297 137.331C26.5962 137.631 26.3968 137.988 26.2657 138.459L25.4938 141.25C25.2598 142.096 25.0546 142.962 24.8704 143.833L24.5735 145.258L24.2469 146.683C24.2184 146.825 24.2202 147.001 24.336 147.276L24.9297 148.701L25.5532 150.126C26.2409 151.769 26.4164 153.549 25.9985 155.322L25.6719 156.747L25.3157 158.172C25.1692 158.799 25.1209 159.411 25.1375 160.012L25.1672 161.437L25.2266 162.862C25.2401 163.32 25.3229 163.845 25.5532 164.406L26.7407 167.256C27.6948 169.594 27.1929 171.92 25.8797 173.758L24.8704 175.183L24.0688 176.251L24.5735 177.38L25.286 178.923L25.7907 180.705C25.8802 181.372 25.8571 182.108 25.6422 182.872C25.1947 184.455 24.1037 185.495 23.0594 186.108L21.7235 186.88L20.3579 187.681C19.2623 188.323 17.5444 189.05 15.6078 188.661C15.4237 188.778 15.2663 188.953 15.0438 189.047C13.6345 189.641 12.3825 189.22 12.1344 189.136C11.3763 188.876 10.7136 188.416 10.3532 188.156L8.21566 186.612C7.19025 185.872 6.26674 184.978 5.57347 183.881L4.97972 182.931L4.41566 182.011C3.51304 180.581 3.23349 178.979 3.31722 177.469L3.3766 176.103L3.46566 174.767C3.50998 173.968 3.51473 173.129 3.49535 172.273L3.43597 169.423C3.43143 169.253 3.37001 168.946 3.07972 168.473L2.21879 167.048L1.32816 165.623C0.405151 164.116 -0.115849 162.386 0.0219117 160.517L0.110974 159.092L0.229724 157.667C0.329713 156.33 0.639352 155.017 1.12035 153.748L2.1891 150.898C2.33618 150.511 2.37506 150.198 2.33754 149.919L1.92191 147.069C1.81952 146.329 1.65195 145.574 1.41722 144.812L1.0016 143.387L0.556287 141.962C0.122651 140.556 -0.0570333 139.096 0.0812867 137.628L0.229724 136.203L0.348474 134.778C0.480233 133.387 0.87517 132.031 1.44691 130.74L2.69379 127.89C2.70614 127.862 2.69146 127.839 2.69379 127.831L2.1891 126.465L1.68441 125.04C1.22597 123.771 0.925868 122.432 0.793787 121.062L0.645349 119.459L0.496912 117.826C0.389335 116.688 0.559585 115.491 1.12035 114.353C1.67761 113.223 2.518 112.384 3.43597 111.77L4.86097 110.82L6.25629 109.87C7.8866 108.781 9.8535 108.209 11.9563 108.623L13.411 108.92L14.836 109.217C16.36 109.52 17.8472 110.175 19.0516 111.355L19.9125 112.186L20.7735 113.047C21.57 113.829 22.1286 114.757 22.5844 115.748C22.7046 115.663 22.8154 115.562 22.9407 115.481L25.4938 113.878C26.4714 113.251 27.4695 112.69 28.4922 112.215L29.7688 111.622L31.075 110.998C31.9666 110.585 32.8762 110.176 33.8063 109.781L36.5375 108.653C37.9737 108.044 39.4924 107.761 41.05 107.851L43.9594 108.03ZM278.817 0.145178L280.331 0.620178L281.727 1.2733L283.122 1.89674C284.678 2.60576 286.007 3.73042 286.922 5.25143L288.347 7.62643C289.03 8.76198 289.543 9.98429 289.861 11.278L290.217 12.703L290.544 14.0983C290.859 15.3824 290.988 16.7001 290.93 18.0171L290.811 20.8671C290.767 21.8671 290.69 22.8659 290.603 23.8655L290.366 26.7155C290.305 27.413 290.317 28.1239 290.395 28.8233L290.544 30.2483L290.722 31.6733C290.848 32.7957 290.902 33.9322 290.87 35.0577L290.811 36.4827L290.781 37.9077C290.765 38.5173 290.81 39.1427 290.959 39.778L291.316 41.203L291.642 42.628C291.984 44.0868 292.038 45.5776 291.761 47.0514L291.464 48.4764L291.197 49.9014C291.054 50.664 290.909 51.4251 290.781 52.1874L291.434 51.7421L292.592 50.8811C292.948 50.6221 293.265 50.3139 293.513 49.9014L294.255 48.6249L295.027 47.378C295.492 46.604 295.936 45.7915 296.363 44.9733L297.045 43.6671L297.728 42.3311C298.705 40.4584 300.34 39.2253 302.27 38.6499L303.814 38.2046L305.358 37.7296C305.719 37.6214 305.825 37.5119 305.863 37.4624L306.723 36.3046L307.614 35.1764C308.415 34.1343 309.344 33.2183 310.405 32.4452L311.563 31.6139L312.72 30.753C313.681 30.0545 314.698 29.4583 315.748 29.0014L316.877 28.4967L318.034 28.0217C319.471 27.397 320.994 27.2202 322.488 27.3389L324.002 27.4577L325.486 27.5764C327.947 27.7766 329.769 29.2114 330.8 31.1983L332.344 34.1671C332.855 35.1559 333.192 36.3638 333.056 37.6999C332.918 39.0572 332.31 40.203 331.542 41.0842L330.533 42.2717L329.494 43.4592C328.836 44.2145 328.21 44.9318 327.653 45.6264L326.763 46.7546L325.872 47.853C325.458 48.3698 325.081 48.9855 324.744 49.6639L324.061 50.9999L323.378 52.3655C322.616 53.8997 321.486 55.1628 319.994 56.0467L318.717 56.7889L317.47 57.5311C316.494 58.108 315.474 58.6412 314.413 59.1046L313.017 59.6983L311.622 60.3217C310.96 60.6114 310.38 60.9485 309.87 61.3311L308.92 62.0139L309.098 62.3702L309.87 63.9436C310.287 64.7941 310.705 65.4287 311.088 65.903L311.978 67.0311L312.869 68.1296C313.489 68.8972 314.112 69.6895 314.709 70.4749L316.431 72.7311L319.014 76.2046L319.845 77.3327C320.305 77.954 320.816 78.5571 321.359 79.1139L322.369 80.153L323.378 81.1624C324.078 81.8785 324.756 82.6193 325.427 83.3592L326.377 84.3983L327.356 85.4671C328.083 86.2683 328.772 87.0953 329.405 87.9608L330.236 89.1186L331.067 90.2467C332.139 91.7174 332.643 93.4633 332.463 95.3233L332.344 96.6889L332.195 98.0249C332.058 99.413 331.665 100.756 331.067 102.033L330.384 103.458L329.702 104.912C329.213 105.948 328.338 107.111 326.852 107.733C325.367 108.353 323.916 108.16 322.844 107.792L321.33 107.287L319.816 106.753C318.635 106.347 317.538 105.851 316.55 105.269L315.452 104.645L314.383 103.992C313.104 103.236 312.066 102.2 311.266 100.994L310.464 99.8061L309.692 98.6186C309.148 97.7987 308.61 96.9634 308.089 96.1249L307.317 94.878L306.575 93.6608C306.185 93.033 305.726 92.4572 305.239 91.9092L303.339 89.7717C302.686 89.0371 302.04 88.2974 301.409 87.5452L299.569 85.3483C299.398 85.1455 299.108 84.9137 298.589 84.6952L297.105 84.0421L295.591 83.4186C293.823 82.6711 292.368 81.3772 291.523 79.5296L290.9 78.1936L290.603 77.5108H290.514L290.336 77.9561L289.742 79.2327L290.366 80.5389L291.048 81.9639C292.086 84.1381 291.881 86.4622 290.692 88.4358L289.831 89.8608L289.059 91.078C289.374 91.7902 289.673 92.5099 289.861 93.2749L290.217 94.6999L290.544 96.0952C290.859 97.3793 290.988 98.6969 290.93 100.014L290.811 102.864C290.767 103.864 290.69 104.863 290.603 105.862L290.366 108.712C290.305 109.41 290.317 110.121 290.395 110.82L290.544 112.245L290.722 113.67C290.848 114.794 290.902 115.928 290.87 117.055L290.811 118.48L290.781 119.905C290.765 120.515 290.81 121.138 290.959 121.775L291.316 123.2L291.642 124.625C291.985 126.085 292.038 127.574 291.761 129.048L291.464 130.473L291.197 131.898C291.054 132.661 290.909 133.422 290.781 134.184L291.434 133.739L292.592 132.878C292.949 132.619 293.264 132.311 293.513 131.898L294.255 130.622L295.027 129.375C295.491 128.602 295.936 127.788 296.363 126.97L297.045 125.664L297.728 124.328C298.705 122.455 300.34 121.222 302.27 120.647L303.814 120.201L305.358 119.726C305.719 119.618 305.825 119.509 305.863 119.459L306.723 118.331L307.614 117.173C308.415 116.131 309.344 115.215 310.405 114.442L311.563 113.611L312.72 112.75C313.68 112.052 314.699 111.455 315.748 110.998L316.877 110.523L318.034 110.019C319.471 109.394 320.994 109.217 322.488 109.336L324.002 109.455L325.486 109.573C327.946 109.773 329.768 111.21 330.8 113.195L332.344 116.164C332.855 117.152 333.191 118.361 333.056 119.697C332.918 121.054 332.31 122.2 331.542 123.081L330.533 124.269L329.494 125.456C328.833 126.214 328.211 126.956 327.653 127.653L325.872 129.85C325.458 130.367 325.081 130.982 324.744 131.661L324.061 132.997L323.378 134.362C322.616 135.896 321.485 137.16 319.994 138.044L318.717 138.786L317.47 139.528C316.494 140.105 315.474 140.638 314.413 141.101L313.017 141.695L311.622 142.319C310.96 142.608 310.38 142.946 309.87 143.328L308.92 144.011L309.098 144.367L309.87 145.94C310.286 146.79 310.705 147.426 311.088 147.9L311.978 149.028L312.869 150.126C313.489 150.894 314.112 151.686 314.709 152.472L316.431 154.728L319.014 158.201L319.845 159.33C320.305 159.95 320.816 160.554 321.359 161.111L322.369 162.15L323.378 163.159C324.079 163.876 324.755 164.616 325.427 165.356L326.377 166.395L327.356 167.464C328.083 168.265 328.772 169.092 329.405 169.958L330.236 171.115L331.067 172.244C332.143 173.718 332.646 175.484 332.463 177.35L332.344 178.686L332.195 180.022C332.059 181.41 331.665 182.753 331.067 184.03L330.384 185.484L329.702 186.909C329.213 187.946 328.339 189.108 326.852 189.73C325.367 190.35 323.916 190.157 322.844 189.789L321.33 189.284L319.816 188.75C318.634 188.343 317.538 187.848 316.55 187.265L315.452 186.642L314.383 185.989C313.104 185.233 312.066 184.197 311.266 182.99L310.464 181.803L309.692 180.615C309.148 179.795 308.611 178.961 308.089 178.122L307.317 176.905L306.575 175.687C306.184 175.058 305.727 174.455 305.239 173.906L303.339 171.769C302.686 171.034 302.04 170.294 301.409 169.542L299.569 167.345C299.397 167.143 299.106 166.91 298.589 166.692L297.105 166.039L295.591 165.415C293.823 164.668 292.368 163.375 291.523 161.526L290.9 160.19L290.603 159.508H290.514L290.336 159.953L289.742 161.259L290.366 162.565L291.048 163.99C292.079 166.161 291.878 168.463 290.692 170.433L288.97 173.283C288.611 173.881 288.48 174.335 288.436 174.648L288.228 176.014L288.05 177.38C287.915 178.333 287.758 179.224 287.605 180.051L287.189 182.367C286.829 184.294 285.675 185.783 284.131 186.731L283.033 187.384L281.934 188.067C281.563 188.295 281.239 188.483 280.984 188.631C280.825 188.724 280.429 188.959 280.064 189.106L279.856 189.195L279.648 189.255C278.356 189.778 277.226 189.449 276.977 189.373C276.564 189.248 276.204 189.068 275.997 188.958C275.567 188.726 275.117 188.442 274.72 188.156L273.681 187.384L272.613 186.612C271.592 185.877 270.67 184.989 269.97 183.911L269.377 182.961L268.753 182.04C267.83 180.613 267.544 179.016 267.625 177.498L267.714 176.133L267.773 174.797C267.817 173.998 267.823 173.161 267.803 172.303L267.744 169.453C267.74 169.283 267.679 168.978 267.388 168.503L266.527 167.078L265.636 165.653C264.714 164.147 264.193 162.414 264.33 160.547L264.448 159.122L264.538 157.697C264.637 156.361 264.948 155.045 265.428 153.778L266.497 150.928C266.644 150.541 266.683 150.228 266.645 149.948L266.438 148.523L266.259 147.098C266.157 146.36 265.988 145.601 265.755 144.842L264.864 141.992C264.43 140.585 264.28 139.126 264.419 137.658L264.538 136.233L264.686 134.808C264.818 133.417 265.183 132.06 265.755 130.77L267.002 127.92V127.861L266.527 126.495L265.992 125.07C265.616 124.029 265.3 122.972 265.013 121.923L264.241 119.073C263.816 117.52 263.755 115.924 264.122 114.353L264.478 112.928L264.805 111.503C265.034 110.524 265.263 109.542 265.517 108.564L265.903 107.139L266.259 105.714C266.464 104.926 266.61 104.144 266.705 103.369L267.061 100.519C267.142 99.8547 267.16 99.198 267.091 98.5592L266.913 97.1639L266.764 95.7389C266.616 94.3734 266.722 93.0125 267.031 91.6717L267.684 88.8217L267.773 88.5546L267.744 87.4561C267.74 87.2865 267.68 86.983 267.388 86.5061L266.527 85.0811L265.636 83.6561C264.714 82.1504 264.193 80.4167 264.33 78.5499L264.448 77.1249L264.538 75.6999C264.637 74.3651 264.949 73.0473 265.428 71.7811L266.497 68.9311C266.643 68.5452 266.682 68.2299 266.645 67.9514L266.438 66.5264L266.259 65.1014C266.157 64.3643 265.988 63.6036 265.755 62.8452L264.864 59.9952C264.43 58.5883 264.28 57.1287 264.419 55.6608L264.538 54.2358L264.686 52.8108C264.818 51.4186 265.183 50.0643 265.755 48.7733L267.002 45.9233V45.8639L266.527 44.4983L265.992 43.0733C265.616 42.0327 265.299 40.9743 265.013 39.9264L264.241 37.0764C263.816 35.5242 263.755 33.9263 264.122 32.3561L264.478 30.9311L264.805 29.5061C265.034 28.5281 265.263 27.5446 265.517 26.5671L265.903 25.1421L266.259 23.7171C266.464 22.9305 266.61 22.1458 266.705 21.3717L267.061 18.5217C267.141 17.8589 267.159 17.2001 267.091 16.5624L266.913 15.1374L266.764 13.7421C266.616 12.3719 266.72 10.9903 267.031 9.64518L267.358 8.24987L267.684 6.82487L268.219 5.3108C268.907 3.91914 270.036 2.85698 271.425 2.16393L272.85 1.45143L274.245 0.768615C275.701 0.0433527 277.275 -0.178604 278.817 0.145178ZM146.025 115.303L144.63 115.719L143.234 116.164C142.673 116.337 142.142 116.575 141.661 116.906L140.444 117.767L139.256 118.598C138.523 119.106 137.823 119.622 137.178 120.142L136.08 121.003L135.011 121.864C134.23 122.493 133.424 123.096 132.606 123.675L130.35 125.278C129.664 125.764 128.98 126.312 128.272 126.881L125.956 128.722C125.406 129.165 124.891 129.68 124.413 130.265L123.463 131.453L122.483 132.611C122.355 132.767 122.315 132.908 122.305 133.115L122.216 134.63L122.156 136.144C122.12 136.871 122.152 137.587 122.275 138.281L122.809 141.25C123.137 143.08 122.842 144.872 122.008 146.505L121.295 147.9L120.583 149.265C120.348 149.723 120.246 150.147 120.227 150.542L120.167 152.026L120.108 153.481C120.094 153.8 120.148 154.115 120.316 154.461L120.998 155.826L121.652 157.192C122.106 158.116 122.548 159.013 122.958 159.894L123.552 161.17L124.145 162.476C124.738 163.752 125.082 165.107 125.214 166.514L125.363 168.058L125.511 169.572C125.552 170.007 125.662 170.371 125.867 170.7L126.669 171.947L127.381 173.075L127.411 173.105L130.677 173.758C132.075 174.04 133.421 174.506 134.625 175.212L136.941 176.578C137.622 176.978 138.326 177.349 139.048 177.706L140.266 178.3L141.483 178.923C141.945 179.15 142.446 179.314 142.967 179.398L145.639 179.814C146.813 180.004 147.977 180.325 149.113 180.764L151.844 181.833C152.399 182.048 153.062 182.342 153.655 182.753C153.763 182.828 153.99 183.037 154.278 183.317L155.08 183.198C155.46 183.136 155.945 182.969 156.505 182.664L157.811 181.951L159.147 181.239C160.135 180.701 161.122 180.219 162.116 179.814L163.392 179.28L164.698 178.775C165.553 178.426 166.41 178.06 167.281 177.706L168.617 177.172L169.923 176.637C170.229 176.512 170.482 176.353 170.695 176.103L171.586 175.005L172.506 173.936C173.518 172.749 174.79 171.862 176.188 171.205L177.672 170.492L178.83 169.928L179.038 168.83L179.305 167.315C179.459 166.432 179.581 165.58 179.631 164.762L179.809 161.853C179.889 160.553 180.133 159.279 180.552 158.053L180.997 156.717L181.472 155.381C181.647 154.87 181.735 154.342 181.739 153.808V150.987C181.747 149.993 181.78 148.989 181.828 147.989L181.917 146.564L181.977 145.139C182.019 144.25 182.033 143.35 182.036 142.437V140.983L182.066 139.528L181.917 137.005L181.739 135.52L181.591 134.036C181.559 133.753 181.454 133.505 181.264 133.264L180.344 132.076L179.394 130.889C178.718 130.03 178.087 129.158 177.494 128.276L176.663 127.059L175.861 125.842C175.55 125.38 175.173 124.992 174.733 124.655L172.417 122.873C171.647 122.284 170.866 121.711 170.102 121.122L168.973 120.231L167.816 119.34C167.285 118.932 166.713 118.586 166.094 118.301L164.758 117.678L163.422 117.084C162.995 116.889 162.561 116.776 162.086 116.758L160.631 116.698L159.147 116.639C158.066 116.598 156.995 116.536 155.941 116.401L154.516 116.223L153.12 116.015C152.159 115.893 151.175 115.774 150.181 115.63L148.697 115.422L147.242 115.214C146.819 115.152 146.42 115.182 146.025 115.303ZM39.5063 115.63L38.1407 116.223L36.8047 116.787C35.9409 117.154 35.0724 117.534 34.2516 117.915L31.6985 119.103C31.0052 119.425 30.2941 119.809 29.5907 120.261L28.3141 121.062L27.0672 121.894C26.8332 122.044 26.6765 122.21 26.5625 122.458L25.9391 123.823L25.3157 125.159C25.1769 125.46 24.9891 125.809 24.7813 126.139C24.6562 126.337 24.2181 127.068 23.386 127.594C22.902 127.897 21.983 128.333 20.8032 128.187C19.563 128.03 18.7126 127.33 18.25 126.762C17.5292 125.871 17.3639 124.877 17.3297 124.655L17.211 123.764L17.0625 122.873C17.0185 122.596 16.9113 122.139 16.6766 121.478L16.261 120.261L15.8157 119.073C15.7112 118.779 15.5949 118.583 15.4594 118.45L13.7375 116.787C13.6909 116.764 13.5509 116.708 13.3516 116.669L11.9266 116.372L10.561 116.105C10.5362 116.119 10.507 116.17 10.4719 116.194L9.0766 117.144L8.1266 117.737L8.3641 120.35C8.43984 121.127 8.61217 121.83 8.8391 122.458L9.34379 123.883L9.87816 125.308C10.5604 127.205 10.4444 129.165 9.64066 130.978L8.39379 133.828C8.12541 134.434 7.96712 134.986 7.91879 135.49L7.80004 136.915L7.6516 138.34C7.61088 138.773 7.64804 139.243 7.80004 139.736L8.69066 142.586C9.03967 143.72 9.3026 144.874 9.46254 146.03L9.67035 147.455L9.84847 148.88C10.0707 150.495 9.88558 152.093 9.3141 153.6L8.75004 155.025L8.21566 156.45C7.97875 157.077 7.84184 157.672 7.80004 158.231L7.71097 159.656L7.59222 161.081C7.58944 161.121 7.58402 161.289 7.80004 161.645L8.69066 163.07L9.5516 164.495C10.4229 165.915 10.9949 167.519 11.036 169.245L11.0953 172.095C11.119 173.139 11.0918 174.177 11.036 175.183L10.9766 176.548L10.8875 177.884C10.884 177.948 10.8859 178 10.8875 178.033L11.4219 178.864L12.0157 179.814C12.1077 179.958 12.2904 180.195 12.6688 180.467L12.9953 180.675C13.0564 180.661 13.1175 180.655 13.1735 180.645C13.6963 180.551 14.1877 180.564 14.5985 180.615L15.5485 180.823L16.4094 181.061L16.5579 181.09L17.6563 180.467L16.9438 178.923C15.9119 176.614 16.2236 174.192 17.6563 172.184L18.6657 170.759L19.4672 169.601L19.111 168.711L18.5172 167.286C17.968 165.947 17.6692 164.542 17.6266 163.1L17.5672 161.675L17.5375 160.25C17.4996 158.962 17.6267 157.682 17.9235 156.42L18.2797 154.995L18.6063 153.57C18.6347 153.45 18.6496 153.313 18.5469 153.065L17.9235 151.64L17.3297 150.215C16.6503 148.6 16.456 146.862 16.825 145.109L17.4188 142.259C17.6358 141.234 17.8837 140.203 18.161 139.201L18.5469 137.836L18.9329 136.44C19.3141 135.064 19.952 133.771 20.8329 132.64L22.4954 130.503C22.9981 129.858 23.5055 129.167 24.0094 128.425L24.8407 127.208L25.6422 125.99C26.6932 124.446 28.1961 123.389 29.9469 122.844L31.4016 122.398L32.8266 121.953C34.5135 121.427 36.2666 121.414 37.9625 121.923L39.4172 122.339L40.8719 122.784C42.3069 123.217 43.6111 123.926 44.761 124.892L45.8891 125.812L46.9875 126.762C48.3919 127.944 49.3287 129.509 49.6297 131.364L49.8672 132.73L50.075 134.125C50.1883 134.82 50.3687 135.53 50.6094 136.233L51.0844 137.569L51.5297 138.934C51.8346 139.824 52.1793 140.728 52.5094 141.665L52.9844 143.09L53.4891 144.515C54.0128 146.002 54.206 147.571 53.9938 149.147L53.786 150.572L53.6079 151.997C53.4982 152.808 53.4183 153.624 53.4 154.431L53.3407 157.281C53.3206 158.172 53.3218 159.062 53.3407 159.953L53.4 162.803C53.4306 164.242 53.2019 165.662 52.7172 167.019L52.1829 168.444L51.6782 169.869C51.3862 170.685 51.1512 171.501 50.9657 172.303L50.3125 175.153C50.2568 175.397 50.256 175.669 50.3719 176.044L50.8469 177.528L51.2329 178.894L52.3313 179.428L53.6375 180.022C54.6753 180.508 55.728 181.092 56.7844 181.773L58.1797 182.694L58.8329 183.109L59.7235 182.515L61.1782 181.476L61.2672 180.022L61.386 178.359C61.4334 177.567 61.3587 176.902 61.2375 176.34L60.9407 174.915L60.6141 173.49C60.3852 172.44 60.2201 171.369 60.0797 170.314L59.8719 168.889L59.6938 167.464C59.5771 166.588 59.417 165.7 59.2485 164.822L58.7141 161.972C58.4591 160.637 58.4257 159.281 58.5954 157.934L58.9516 155.084C59.1481 153.535 59.6943 152.08 60.4954 150.75L61.3563 149.325L62.0094 148.226L61.5344 147.217L60.8516 145.792C60.2517 144.533 59.8313 143.214 59.6047 141.844L59.3672 140.3L59.1 138.756C58.7197 136.413 59.5471 134.281 61.2079 132.73L62.3954 131.631L63.5829 130.503C64.5718 129.579 65.6394 128.781 66.7891 128.187L69.1047 127C69.4523 126.82 69.887 126.498 70.3813 125.99L72.5782 123.734C74.0561 122.215 76.0067 121.437 78.1594 121.567L79.6735 121.656L81.2172 121.745C82.7837 121.841 84.2748 122.278 85.6704 122.992L87.0954 123.705L88.5204 124.447C90.2326 125.323 91.562 126.688 92.35 128.455L93.0032 129.909L93.6266 131.364C94.2309 132.723 94.6148 134.159 94.6954 135.639L94.7547 137.123L94.8438 138.608L95.111 142.883L95.2297 144.308C95.343 145.968 94.9773 147.558 94.2797 149.028L93.5969 150.453L92.9438 151.789L93.4782 153.125L94.0422 154.55C94.6246 156.013 94.8684 157.565 94.725 159.151L94.4875 162.001C94.4186 162.764 94.414 163.526 94.4579 164.287L94.5172 165.712L94.9625 172.837C95.0132 173.648 95.1036 174.419 95.2297 175.153L95.4672 176.489L95.675 177.825C95.7488 178.253 95.8739 178.504 95.9719 178.656L96.625 179.636L97.0704 180.319L98.0797 180.586L99.2375 180.853L100.366 180.378L100.87 180.14L101.019 179.665L101.316 178.508C101.467 177.903 101.599 177.191 101.702 176.4L102.058 173.669C102.215 172.453 102.49 171.233 102.919 170.047L103.453 168.622L103.958 167.197C104.249 166.391 104.49 165.582 104.67 164.792L105.323 161.942C105.367 161.741 105.367 161.541 105.264 161.259L104.73 159.834L104.225 158.409C103.785 157.208 103.465 155.974 103.305 154.728L102.948 151.878C102.739 150.24 102.963 148.636 103.572 147.128L104.166 145.703L104.73 144.278C104.902 143.853 104.937 143.506 104.908 143.209L104.759 141.784L104.641 140.359C104.579 139.729 104.427 139.088 104.195 138.43L103.691 137.034L103.216 135.609C102.848 134.562 102.544 133.518 102.295 132.492L101.642 129.82C101.442 128.993 101.207 128.162 100.959 127.326L100.544 125.961L100.158 124.625C100.092 124.403 99.9981 124.239 99.8313 124.09L98.7922 123.17L97.7235 122.25C96.6603 121.305 95.7909 120.157 95.0813 118.895L94.2797 117.47L93.7157 116.461L92.736 116.431L91.1625 116.401C90.3387 116.379 89.5803 116.439 88.8766 116.55L87.4219 116.758L85.9969 116.995C84.8003 117.184 83.6004 117.259 82.4047 117.203L80.9797 117.114L79.5844 117.055C79.1971 117.036 78.8414 117.09 78.486 117.233L75.8735 118.301C75.1326 118.6 74.3901 118.936 73.6766 119.311L71.1829 120.617C70.5863 120.932 70.0022 121.316 69.4313 121.775L68.2735 122.725L67.3235 123.467V123.853L67.2641 124.892C67.2508 125.205 67.2121 126.093 66.7297 126.97C66.4516 127.473 65.917 128.152 65.0375 128.603C64.1179 129.07 63.1807 129.106 62.4547 128.959C61.2633 128.719 60.5088 127.984 60.2875 127.772C59.9513 127.449 59.6709 127.084 59.4563 126.792L58.536 125.575L57.6157 124.328C57.043 123.55 56.4741 122.782 55.8938 122.072L54.9735 120.944L54.0235 119.786C53.7662 119.474 53.457 119.265 53.1032 119.103L51.7969 118.48L50.461 117.886C49.6828 117.529 48.8842 117.183 48.086 116.906L45.3547 115.956C44.7771 115.756 44.1713 115.637 43.5438 115.6L42.0594 115.54L40.6047 115.451C40.2167 115.429 39.8652 115.479 39.5063 115.63ZM283.033 105.387L281.934 106.07C281.562 106.298 281.24 106.486 280.984 106.634C280.825 106.727 280.429 106.962 280.064 107.109L279.856 107.198L279.648 107.258C278.357 107.78 277.227 107.453 276.977 107.376C276.564 107.251 276.204 107.072 275.997 106.961C275.567 106.729 275.117 106.445 274.72 106.159L274.008 105.625C273.89 106.288 273.793 106.956 273.622 107.614L273.266 109.039L272.88 110.464C272.641 111.382 272.412 112.308 272.197 113.225L271.544 116.075C271.468 116.398 271.453 116.715 271.544 117.055L271.959 118.48L272.345 119.905C272.578 120.755 272.837 121.63 273.147 122.487L273.652 123.912L274.186 125.337C274.868 127.232 274.779 129.196 273.978 131.008L273.325 132.433L272.702 133.858C272.433 134.463 272.305 135.015 272.256 135.52L272.108 136.945L271.989 138.37C271.949 138.799 271.988 139.247 272.138 139.736L272.553 141.161L272.998 142.586C273.349 143.724 273.61 144.899 273.77 146.059L273.978 147.484L274.156 148.909C274.378 150.525 274.193 152.123 273.622 153.63L273.088 155.055L272.523 156.48C272.288 157.105 272.179 157.703 272.138 158.261L271.9 161.111C271.897 161.155 271.919 161.318 272.138 161.675L272.998 163.1L273.889 164.525C274.761 165.946 275.303 167.548 275.344 169.275L275.403 172.125C275.427 173.167 275.427 174.21 275.373 175.212L275.284 176.548L275.225 177.914C275.223 177.967 275.224 178.005 275.225 178.033L275.73 178.834L276.353 179.755C276.455 179.912 276.648 180.156 277.036 180.437L278.105 181.209L278.313 181.358L279.055 180.912L279.797 180.437L279.916 179.814L280.123 178.656C280.254 177.953 280.387 177.173 280.509 176.311L280.717 174.945L280.895 173.58C281.109 172.073 281.687 170.662 282.469 169.364L283.33 167.939L283.983 166.84L283.508 165.831L282.825 164.406C281.89 162.447 281.865 160.323 282.736 158.35L283.389 156.895L284.013 155.44L284.814 154.075C285.153 153.619 285.567 153.171 286.091 152.798C287.198 152.01 288.478 151.714 289.713 151.819L290.989 151.937L292.236 152.056C294.073 152.22 295.476 153.13 296.422 154.372L297.223 155.708L297.817 157.044L298.411 158.35C298.434 158.364 298.488 158.379 298.559 158.409L300.044 159.033L301.558 159.686C303.033 160.308 304.369 161.225 305.417 162.476L306.308 163.545L307.228 164.644C307.815 165.344 308.431 166.038 309.039 166.722L310.939 168.859C311.711 169.728 312.402 170.661 313.017 171.65L313.789 172.867L314.531 174.084C315.014 174.861 315.512 175.641 316.016 176.4L316.817 177.587L317.589 178.805C317.84 179.182 318.078 179.361 318.242 179.458L319.311 180.081L320.409 180.734C320.859 180.999 321.486 181.283 322.309 181.565L323.586 182.011L324.18 180.823C324.475 180.195 324.615 179.676 324.655 179.28L324.773 177.944L324.863 176.667L324.091 175.598L323.259 174.44C322.787 173.795 322.264 173.175 321.716 172.57L320.766 171.501L319.816 170.462C319.208 169.793 318.58 169.122 317.945 168.473L316.936 167.464L315.927 166.425C315.144 165.624 314.425 164.77 313.759 163.872L312.898 162.714L312.067 161.586C311.512 160.835 310.94 160.072 310.375 159.33L308.653 157.073C308.101 156.347 307.534 155.616 306.961 154.906L306.07 153.808L305.18 152.68C304.371 151.678 303.653 150.542 303.042 149.295L301.498 146.148C301.039 145.211 300.657 143.929 300.875 142.497C301.112 140.95 301.977 139.773 303.013 138.994L304.141 138.133L305.298 137.272C306.312 136.509 307.412 135.858 308.594 135.342L309.989 134.748L311.355 134.125C312.144 133.781 312.91 133.411 313.611 132.997L314.858 132.255L316.134 131.512C316.311 131.406 316.446 131.248 316.58 130.978L317.263 129.642L317.945 128.276C318.509 127.142 319.16 126.067 319.934 125.1L320.825 124.001L321.716 122.873C322.345 122.088 323.043 121.296 323.764 120.469L324.803 119.281L325.159 118.836L324.833 118.183L324.239 117.084L323.378 117.025L321.894 116.906C321.403 116.867 321.156 116.925 321.063 116.965L319.905 117.47L318.777 117.975C318.296 118.184 317.747 118.478 317.173 118.895L316.045 119.756L314.888 120.587C314.418 120.929 314.004 121.332 313.641 121.805L312.75 122.933L311.889 124.09C310.759 125.562 309.225 126.523 307.525 127.03L305.981 127.475L304.438 127.95H304.378L303.784 129.167L303.102 130.503C302.606 131.454 302.073 132.387 301.528 133.294L300.786 134.54L300.014 135.817C299.254 137.079 298.267 138.155 297.075 139.023L295.917 139.884L294.73 140.715C294.16 141.13 293.651 141.601 293.186 142.111L292.236 143.18L291.256 144.219C290.975 144.528 290.576 144.93 290.069 145.258C289.586 145.568 288.692 146.014 287.516 145.97C286.162 145.919 285.107 145.236 284.458 144.456C283.907 143.79 283.661 143.087 283.538 142.645L283.211 141.517L282.914 140.419C282.536 139.043 282.547 137.638 282.766 136.292L283.003 134.867L283.211 133.442C283.37 132.466 283.562 131.478 283.745 130.503L284.28 127.653C284.36 127.229 284.353 126.786 284.25 126.347L283.923 124.922L283.567 123.497C283.274 122.245 283.147 120.975 283.181 119.697L283.211 118.272L283.27 116.847C283.292 116.08 283.238 115.301 283.152 114.531L282.855 111.681C282.719 110.481 282.69 109.262 282.795 108.059L282.914 106.634L283.033 105.387ZM222.441 115.244L221.016 115.659L219.62 116.075C219.057 116.243 218.528 116.488 218.047 116.817L216.83 117.648L215.642 118.48C214.908 118.982 214.209 119.508 213.564 120.023L212.466 120.884L211.397 121.745C210.614 122.371 209.81 122.98 208.992 123.556L207.864 124.358L206.736 125.13C206.048 125.614 205.339 126.164 204.628 126.733L202.313 128.573C201.766 129.012 201.245 129.509 200.769 130.087L199.819 131.275L198.839 132.462C198.715 132.615 198.673 132.736 198.661 132.937L198.572 134.481L198.483 135.995C198.444 136.725 198.48 137.436 198.602 138.133L199.136 141.101C199.454 142.933 199.149 144.728 198.305 146.356L197.592 147.722L196.88 149.117C196.642 149.576 196.513 149.995 196.494 150.394L196.375 153.303C196.36 153.626 196.412 153.962 196.583 154.312L197.236 155.648L197.919 157.014C198.37 157.942 198.789 158.861 199.195 159.745L200.383 162.298C200.974 163.584 201.328 164.979 201.452 166.395L201.689 169.423C201.727 169.862 201.871 170.22 202.075 170.551L202.847 171.828L203.559 172.956L203.589 172.986L205.222 173.342L206.855 173.669C208.252 173.963 209.604 174.435 210.803 175.153L213.059 176.519C213.737 176.924 214.448 177.315 215.167 177.676L216.384 178.27L217.602 178.894C218.059 179.122 218.539 179.282 219.056 179.369L220.392 179.576L221.758 179.814C222.923 180.008 224.073 180.326 225.202 180.764L226.538 181.269C227.144 180.87 227.747 180.722 228.052 180.645C228.79 180.461 229.563 180.425 230.159 180.437L231.525 180.467L232.92 180.497C233.592 180.51 234.264 180.464 234.939 180.348L236.305 180.111L237.7 179.873C238.231 179.781 238.738 179.615 239.214 179.369L240.431 178.715L241.678 178.092C242.926 177.446 244.278 177.051 245.686 176.845L247.259 176.608L248.298 176.43L248.744 175.509L249.367 174.084C249.882 172.911 250.506 171.818 251.238 170.819L252.069 169.69L252.9 168.533C253.084 168.277 253.189 168.032 253.227 167.761L253.405 166.395L253.553 165.089L252.989 164.258L252.573 163.664L251.92 163.605L250.673 163.515H250.555L249.516 164.05L248.506 164.614C248.451 164.644 248.272 164.762 248.002 165.148L247.17 166.306L246.369 167.464C245.691 168.432 244.917 169.344 244.053 170.195L242.984 171.234L241.916 172.303C240.975 173.23 239.92 174.029 238.769 174.708L237.403 175.509L236.067 176.281C234.554 177.172 232.871 177.624 231.109 177.558L229.595 177.498L228.052 177.439C226.331 177.374 224.706 176.833 223.272 175.865L222.025 175.034L220.748 174.173C219.666 173.441 218.686 172.6 217.869 171.62L216.206 169.601C215.884 169.215 215.452 168.835 214.93 168.473L213.772 167.672L212.614 166.84C211.298 165.929 210.263 164.737 209.556 163.308L208.903 162.001L208.28 160.695C207.435 158.979 207.26 157.13 207.716 155.322L208.102 153.867L208.458 152.383C208.607 151.789 208.65 151.281 208.606 150.839L208.458 149.444L208.339 148.078C208.257 147.253 208.136 146.392 207.983 145.495L207.716 144.04L207.478 142.556C207.213 140.999 207.308 139.438 207.775 137.925L208.191 136.53L208.636 135.134C209.087 133.673 209.837 132.349 210.863 131.215L211.872 130.117L212.852 129.019C213.571 128.226 214.332 127.472 215.108 126.733L216.147 125.694L217.216 124.684C218.507 123.455 220.096 122.879 221.728 122.903L223.361 123.111L224.845 123.497L226.359 123.883C226.803 123.995 227.1 123.969 227.309 123.912L228.675 123.556L230.011 123.2C231.486 122.804 233.002 122.759 234.494 123.022L235.978 123.259L237.433 123.526C239.366 123.867 241.011 124.886 242.183 126.465L243.073 127.683L243.964 128.87C244.561 129.679 245.156 130.473 245.716 131.245L246.547 132.403L247.348 133.531C247.659 133.96 248.002 134.298 248.358 134.54L249.456 135.283L250.584 136.025C250.612 136.029 250.667 136.031 250.763 136.025L252.277 135.936L253.583 135.847L254.622 134.511L255.334 133.59L254.948 132.7L254.325 131.215C253.945 130.323 253.542 129.504 253.138 128.751L252.455 127.445L251.742 126.139C251.514 125.719 251.239 125.364 250.881 125.07L248.625 123.23C247.891 122.628 247.136 122.032 246.398 121.448L245.27 120.528L244.113 119.637C243.583 119.22 243.009 118.864 242.391 118.569L239.778 117.322C239.349 117.117 238.894 116.994 238.413 116.965L236.958 116.876L235.473 116.787C234.4 116.724 233.342 116.613 232.297 116.461L230.872 116.253L229.477 116.045C228.527 115.906 227.552 115.753 226.567 115.6L225.083 115.392L223.628 115.155C223.211 115.09 222.83 115.128 222.441 115.244ZM153.892 120.29C155.772 120.27 157.534 120.875 159.028 122.012L160.245 122.933L161.492 123.883C162.197 124.419 162.922 124.905 163.659 125.337L166.272 126.881L167.489 127.772C168.233 128.441 168.837 129.232 169.241 130.147L169.686 131.601L170.339 134.57C170.612 135.833 170.728 137.102 170.695 138.37L170.636 141.22C170.618 141.926 170.671 142.604 170.784 143.239L171.022 144.575L171.259 145.94C171.369 146.555 171.556 147.238 171.853 147.989L172.447 149.444L173.011 150.898C173.7 152.645 173.789 154.53 173.159 156.361L172.684 157.726L172.209 159.122C171.87 160.108 171.497 161.081 171.111 162.031L170.577 163.367L170.042 164.673C169.554 165.875 168.903 166.999 168.113 168.028L167.252 169.186L166.361 170.314C165.326 171.659 163.973 172.653 162.353 173.194L160.988 173.639L159.652 174.084C158.773 174.376 157.903 174.677 157.039 174.975L155.703 175.42L154.397 175.865C153.9 176.037 153.373 176.208 152.883 176.311C152.643 176.361 152.295 176.417 151.903 176.43C151.678 176.437 151.001 176.421 150.211 176.103C150.078 176.112 149.903 176.143 149.706 176.162L148.192 176.311L146.648 176.459C145.544 176.565 144.342 176.415 143.205 175.836C142.07 175.257 141.247 174.368 140.681 173.431L139.88 172.095L139.048 170.73C138.589 169.97 138.144 169.33 137.713 168.8L136.852 167.761L136.02 166.722C135.417 165.982 134.8 165.181 134.18 164.347L133.289 163.159L132.398 161.942C131.46 160.678 130.824 159.253 130.558 157.697L130.32 156.242L130.083 154.817C129.754 152.897 130.153 151.056 131.063 149.444L131.864 148.019L132.428 146.95L131.834 145.792L131.033 144.278C130.132 142.57 129.772 140.628 130.231 138.637L130.558 137.153L130.914 135.669L131.389 134.244C132 132.894 132.986 131.793 134.239 130.978L136.97 129.197C137.379 128.929 137.644 128.637 137.831 128.306L138.603 126.94L139.345 125.605C140.313 123.883 141.808 122.638 143.68 122.012L145.164 121.537L146.619 121.033C147.972 120.581 149.378 120.366 150.805 120.35L153.892 120.29ZM150.894 127.95C150.258 127.957 149.628 128.045 149.023 128.247L147.569 128.751L146.084 129.226C146.053 129.237 146.035 129.251 146.025 129.256C146.02 129.262 145.986 129.279 145.966 129.315L145.223 130.681L144.452 132.017C143.631 133.477 142.492 134.673 141.097 135.58L139.731 136.47L138.395 137.361C138.349 137.391 138.29 137.379 138.277 137.39L137.98 138.875L137.623 140.359V140.419C137.63 140.456 137.657 140.553 137.742 140.715L139.345 143.744C140.445 145.828 140.497 148.193 139.286 150.334L137.683 153.184C137.601 153.331 137.571 153.417 137.564 153.451V153.54L137.802 154.965L138.069 156.42C138.131 156.777 138.246 157.108 138.484 157.43L140.266 159.805C140.827 160.56 141.373 161.267 141.898 161.912L142.759 162.951L143.591 163.99C144.286 164.843 144.961 165.787 145.58 166.811L146.381 168.147L146.767 168.8L147.45 168.74L148.994 168.592C149.545 168.539 150.084 168.478 150.538 168.473C150.759 168.471 151.045 168.501 151.339 168.533C151.425 168.542 151.61 168.62 151.873 168.681H151.903L153.239 168.236L154.545 167.79C155.435 167.484 156.343 167.17 157.247 166.87L158.613 166.425L159.948 165.98C160.107 165.927 160.208 165.846 160.334 165.683L161.225 164.555L162.086 163.397C162.462 162.907 162.775 162.391 163.006 161.823L164.075 159.151C164.406 158.338 164.732 157.51 165.025 156.658L165.975 153.867V153.808C165.97 153.785 165.967 153.744 165.945 153.689L165.381 152.234L164.788 150.809C164.325 149.642 163.989 148.456 163.778 147.276L163.541 145.94L163.303 144.575C163.096 143.415 163.005 142.237 163.036 141.042L163.095 138.192C163.112 137.564 163.07 136.883 162.917 136.173L162.591 134.689L162.264 133.323L161.136 132.67L159.8 131.898C158.797 131.31 157.829 130.653 156.891 129.939L155.644 128.989L154.427 128.039C154.275 127.924 154.163 127.889 153.981 127.89L150.894 127.95ZM236.097 131.008L236.156 131.037L236.127 131.008L236.067 130.978L236.097 131.008ZM304.408 127.89H304.467V127.831L304.408 127.89ZM43.9594 26.0327C45.2819 26.1092 46.5996 26.3417 47.8485 26.7749L49.2141 27.2796L50.5797 27.7546C51.6058 28.1106 52.6145 28.5163 53.6079 28.9717L54.9438 29.5655L56.2797 30.1889C57.6944 30.838 58.9163 31.7773 59.9016 32.9796L60.8516 34.1374L61.7719 35.2655C61.9203 35.447 62.0699 35.6449 62.2172 35.8296C62.2646 35.7897 62.3182 35.7491 62.3657 35.7108L63.4938 34.7905L64.6516 33.8702C65.5963 33.1086 66.5929 32.4373 67.65 31.8811L70.1438 30.5749C71.0886 30.0779 72.0667 29.6359 73.0532 29.2389L74.3594 28.7046L75.636 28.1999C77.0086 27.6475 78.4633 27.3885 79.9407 27.4577L81.336 27.5171L82.761 27.6061C83.4238 27.637 84.1061 27.5977 84.8094 27.4874L86.2641 27.2499L87.6891 27.0421C88.8883 26.8533 90.1157 26.7708 91.3704 26.8046L92.9438 26.8342L94.5172 26.8936C96.3625 26.9449 97.9338 27.6788 99.0891 28.9124L100.098 30.3077L101.702 33.1577C102.066 33.8051 102.439 34.2566 102.77 34.553L103.839 35.503L104.878 36.4233C106.106 37.5156 106.964 38.8871 107.431 40.4608L107.847 41.7967L108.233 43.1624C108.517 44.1202 108.773 45.086 109.005 46.0421L109.658 48.7139C109.842 49.4726 110.081 50.2638 110.37 51.0889L110.875 52.5139L111.38 53.9092C111.804 55.1187 112.087 56.359 112.211 57.6202L112.33 59.0452L112.478 60.4702C112.634 62.0739 112.362 63.6563 111.766 65.1311L110.638 67.9811C110.483 68.3628 110.458 68.6469 110.489 68.9014L110.845 71.7514C110.93 72.4051 111.094 73.1009 111.35 73.7999L111.884 75.2249L112.389 76.6499C112.978 78.2566 113.129 79.9481 112.745 81.6374L112.092 84.4874C111.84 85.5904 111.505 86.6956 111.113 87.7827L110.608 89.2077L110.073 90.6327C109.816 91.3462 109.649 92.0334 109.569 92.6514L109.213 95.3827C109.078 96.4215 108.912 97.417 108.678 98.3514L108.084 100.667C107.595 102.617 106.313 104.102 104.522 104.883L103.394 105.358L102.266 105.862C100.755 106.518 99.1329 106.65 97.5454 106.278L95.111 105.684C93.4292 105.286 91.9571 104.341 90.9547 102.834L89.6485 100.875C88.8838 99.7236 88.4228 98.4323 88.1938 97.1046L87.9563 95.7983L87.7485 94.4624C87.5709 93.433 87.4294 92.3655 87.3625 91.2858L87.0063 85.5858L86.9469 84.1608L86.8579 82.7358C86.7923 81.5996 86.8148 80.4566 86.9172 79.3217L87.1547 76.4717C87.183 76.1593 87.1488 75.8077 86.9766 75.3733L85.8485 72.5233C85.0669 70.5591 85.1647 68.4889 86.0563 66.6155L87.4219 63.7655C87.6185 63.3486 87.6456 63.0442 87.6297 62.8155L87.4516 59.9655C87.3843 58.998 87.2985 58.0009 87.2438 56.9967L87.1844 55.5124L87.0954 54.0577C87.0683 53.5614 86.9339 53.0261 86.6797 52.4546L86.0563 50.9999L85.4032 49.5452C85.3343 49.3929 85.26 49.3135 85.0766 49.2186L83.6516 48.4764L82.1969 47.7639C81.6887 47.5046 81.2102 47.3766 80.7422 47.3483L79.2282 47.2296L77.9219 47.1405L76.9422 48.1499L75.8438 49.278C74.8842 50.2656 73.8118 51.1201 72.6079 51.7421L71.45 52.3358L70.2625 52.9592C69.8641 53.1672 69.3665 53.5088 68.7782 54.0577L67.5907 55.1858L66.6704 55.9874L66.8485 57.0561L67.1157 58.5999C67.224 59.2564 67.4089 59.8992 67.7094 60.5296L69.075 63.3796C70.1121 65.5526 69.9059 67.8488 68.7188 69.8217L66.9969 72.6717C66.657 73.2361 66.5368 73.6906 66.4922 74.0374L66.136 76.8874C66.0669 77.4356 66.0584 77.9895 66.1657 78.5499L66.4625 79.9749L66.7297 81.3999C66.9252 82.4184 67.0984 83.4372 67.2344 84.4577L67.5907 87.3077C67.7032 88.1529 67.8508 89.0111 68.036 89.8608L68.3625 91.2858L68.6594 92.7108C68.95 94.0444 69.0414 95.4328 68.9563 96.8374L68.8672 98.4702L68.7485 100.133C68.6046 102.506 67.4098 104.427 65.5719 105.714L62.6032 107.792C61.6661 108.446 60.4906 108.95 59.1297 109.009C57.7442 109.07 56.4989 108.657 55.4782 108L54.0829 107.08L52.6579 106.159C51.8402 105.632 51.0818 105.231 50.4016 104.912L49.125 104.289L47.8188 103.695C45.9048 102.797 44.6465 101.201 44.0485 99.3014L43.6032 97.8171L43.1282 96.3327C42.6279 94.741 42.5383 93.085 42.9204 91.4342L43.5735 88.5842C43.8269 87.4896 44.1374 86.3989 44.5235 85.3186L45.0282 83.8936L45.5625 82.4686C45.7544 81.9321 45.8083 81.4397 45.8 80.9842L45.7407 78.1342C45.7193 77.1288 45.7179 76.1116 45.7407 75.1061L45.8 72.2561C45.8247 71.1661 45.9206 70.0768 46.0672 68.9905L46.275 67.5655L46.4532 66.1405C46.4968 65.8175 46.4795 65.4538 46.3344 65.0421L45.325 62.1921C44.9892 61.2385 44.6567 60.3103 44.3454 59.4014L43.8704 58.0358L43.425 56.6702C43.0496 55.5725 42.7474 54.4464 42.5641 53.3155L42.3563 51.9499L42.1188 50.5842H42.0891L40.9907 49.6342L39.8922 48.7139C39.5639 48.4377 39.164 48.2079 38.675 48.0608L37.2204 47.6155L35.7657 47.1999C35.5388 47.1332 35.3544 47.126 35.1125 47.1999L32.2032 48.0905C32.1045 48.1212 32.048 48.1644 32.025 48.1796C32.0113 48.1896 31.9734 48.214 31.936 48.2686L31.1047 49.4858L30.3032 50.703C29.7149 51.5692 29.1018 52.3843 28.4922 53.1671L27.661 54.2358L26.8297 55.3342C26.596 55.6345 26.3967 55.9904 26.2657 56.4624L25.4938 59.253C25.2601 60.0977 25.0544 60.9657 24.8704 61.8358L24.5735 63.2608L24.2469 64.6858C24.2194 64.8246 24.2268 64.9849 24.336 65.2499L24.9297 66.6749L25.5532 68.0999C26.2445 69.7432 26.4138 71.5213 25.9985 73.2952L25.6719 74.7202L25.3157 76.1452C25.1664 76.7784 25.1205 77.4083 25.1375 78.0155L25.1672 79.4405L25.2266 80.8655C25.2401 81.323 25.3229 81.848 25.5532 82.4092L26.7407 85.2592C27.6934 87.5966 27.1924 89.9237 25.8797 91.7608L24.8704 93.1858L24.0688 94.2546L24.5735 95.3827L25.286 96.9264L25.7907 98.7077C25.8797 99.374 25.8568 100.112 25.6422 100.875C25.1942 102.456 24.1031 103.499 23.0594 104.111L21.7235 104.883L20.3579 105.684C19.2623 106.326 17.5434 107.053 15.6078 106.664C15.4238 106.781 15.2662 106.956 15.0438 107.05C13.6345 107.644 12.3825 107.223 12.1344 107.139C11.3769 106.88 10.7141 106.419 10.3532 106.159L8.21566 104.615C7.1883 103.874 6.26741 102.954 5.57347 101.855L4.97972 100.934L4.41566 99.9842C3.51512 98.5564 3.2341 96.9805 3.31722 95.4717L3.3766 94.1061L3.46566 92.7702C3.50998 91.9712 3.51473 91.1326 3.49535 90.2764L3.43597 87.4264C3.43197 87.2566 3.37178 86.9525 3.07972 86.4764L2.21879 85.0514L1.32816 83.6264C0.404805 82.1196 -0.115103 80.3887 0.0219117 78.5202L0.110974 77.0952L0.229724 75.6702C0.329641 74.3339 0.639953 73.0189 1.12035 71.7514L2.1891 68.9014C2.33565 68.5151 2.37448 68.2005 2.33754 67.9217L1.92191 65.0717C1.81956 64.332 1.65179 63.5767 1.41722 62.8155L1.0016 61.3905L0.556287 59.9655C0.122651 58.5586 -0.0570333 57.099 0.0812867 55.6311L0.229724 54.2061L0.348474 52.7811C0.479977 51.3888 0.874747 50.0346 1.44691 48.7436L2.69379 45.8936V45.8342L2.1891 44.4686L1.68441 43.0436C1.22597 41.7746 0.925868 40.4356 0.793787 39.0655L0.645349 37.4624L0.496912 35.8296C0.388775 34.6903 0.559335 33.4953 1.12035 32.3561C1.67817 31.2237 2.5164 30.3578 3.43597 29.7436L4.86097 28.8233L6.25629 27.8733C7.88675 26.7844 9.85328 26.2122 11.9563 26.6264L13.411 26.9233L14.836 27.1905C16.3612 27.493 17.8463 28.1768 19.0516 29.3577L20.7735 31.0202C21.5742 31.8047 22.1271 32.7564 22.5844 33.7514C22.7046 33.6657 22.8154 33.5648 22.9407 33.4842L25.4938 31.8811C26.4718 31.2534 27.469 30.6936 28.4922 30.2186L29.7688 29.6249L31.075 29.0014C31.9666 28.5877 32.8761 28.1796 33.8063 27.7842L35.1719 27.2202L36.5375 26.6264C37.9709 26.0206 39.4958 25.7646 41.05 25.8546L43.9594 26.0327ZM39.5063 33.6327L38.1407 34.1967L36.8047 34.7905C35.9409 35.1575 35.0724 35.5376 34.2516 35.9186L31.6985 37.1061C31.0048 37.4281 30.2946 37.8121 29.5907 38.2639L28.3141 39.0655L27.0672 39.8967C26.8332 40.047 26.6765 40.2136 26.5625 40.4608L25.9391 41.7967L25.3157 43.1624C25.1768 43.4637 24.9893 43.8122 24.7813 44.1421C24.6548 44.3427 24.2168 45.0729 23.386 45.5967C22.9021 45.9003 21.9828 46.3363 20.8032 46.1905C19.5644 46.0337 18.7129 45.3328 18.25 44.7655C17.5325 43.8785 17.3648 42.8856 17.3297 42.6577L17.211 41.7671L17.0625 40.8764C17.0188 40.5991 16.9122 40.1447 16.6766 39.4811L16.261 38.2639L15.8157 37.0764C15.7112 36.7822 15.5949 36.5857 15.4594 36.453L14.5985 35.6217L13.7375 34.7608C13.6909 34.7379 13.5509 34.7113 13.3516 34.6717L11.9266 34.3749L10.5907 34.078C10.5611 34.0933 10.5243 34.1617 10.4719 34.1967L9.0766 35.1171L8.09691 35.7405L8.21566 36.7202L8.3641 38.353C8.43996 39.1289 8.61247 39.8335 8.8391 40.4608L9.34379 41.8858L9.87816 43.3108C10.5593 45.2068 10.444 47.1685 9.64066 48.9811L8.39379 51.8311C8.12487 52.4379 7.96685 52.9878 7.91879 53.4936L7.80004 54.9186L7.6516 56.3436C7.61131 56.7712 7.65192 57.2222 7.80004 57.7092L8.69066 60.5592C9.04157 61.6977 9.30203 62.8727 9.46254 64.0327L9.67035 65.4577L9.84847 66.8827C10.07 68.4973 9.88522 70.0976 9.3141 71.603L8.75004 73.028L8.21566 74.453C7.97941 75.0792 7.84178 75.676 7.80004 76.2342L7.71097 77.6592L7.59222 79.0842C7.58961 79.1292 7.5878 79.2993 7.80004 79.6483L8.69066 81.0733L9.5516 82.4983C10.4235 83.9194 10.9955 85.5207 11.036 87.2483L11.0953 90.0983C11.119 91.1421 11.0918 92.1797 11.036 93.1858L10.9766 94.5217L10.8875 95.8874C10.8839 95.9527 10.8858 96.0025 10.8875 96.0358L11.4219 96.8671L12.0157 97.8171C12.1075 97.9604 12.2975 98.172 12.6688 98.4405L12.9953 98.678C13.0566 98.6641 13.1173 98.6585 13.1735 98.6483C13.6967 98.5535 14.1875 98.5669 14.5985 98.6186L15.5485 98.7967L16.4094 99.0639L16.5579 99.0936L17.6563 98.4702L16.9438 96.9264C15.9123 94.6179 16.2249 92.1944 17.6563 90.1874L18.6657 88.7624L19.4672 87.6046L19.111 86.7139L18.5172 85.2889C17.9683 83.9514 17.6696 82.5441 17.6266 81.103L17.5672 79.678L17.5375 78.253C17.4996 76.9665 17.6272 75.6837 17.9235 74.4233L18.2797 72.9983L18.6063 71.5733C18.6346 71.4532 18.6485 71.3143 18.5469 71.0686L17.9235 69.6436L17.3297 68.2186C16.6507 66.6045 16.4568 64.864 16.825 63.1124L17.4188 60.2624C17.6358 59.2368 17.8837 58.2057 18.161 57.2046L18.5469 55.8092L18.9329 54.4436C19.3141 53.0671 19.952 51.7744 20.8329 50.6436L22.4954 48.5061C22.9981 47.8607 23.5054 47.1701 24.0094 46.428L24.8407 45.2108L25.6422 43.9936C26.6933 42.4476 28.1953 41.3926 29.9469 40.8467L31.4016 40.4014L32.8266 39.9561C34.5135 39.4305 36.2666 39.4168 37.9625 39.9264L39.4172 40.3421L40.8719 40.7874C42.3072 41.2203 43.611 41.9282 44.761 42.8952L45.8891 43.8155L46.9875 44.7655C48.0424 45.653 48.8483 46.7481 49.3032 48.0311L49.6297 49.3671L49.8672 50.7327L50.075 52.128C50.1876 52.8178 50.3712 53.5085 50.6094 54.2061L51.0844 55.5717L51.5297 56.9374C51.8346 57.8273 52.1793 58.7314 52.5094 59.6686L52.9844 61.0936L53.4891 62.5186C54.0131 64.0063 54.2067 65.5735 53.9938 67.1499L53.786 68.5749L53.6079 69.9999C53.4982 70.8107 53.4183 71.6271 53.4 72.4342L53.3407 75.2842C53.3206 76.1748 53.3218 77.0656 53.3407 77.9561L53.4 80.8061C53.4307 82.2462 53.2025 83.6638 52.7172 85.0217L52.1829 86.4467L51.6782 87.8717C51.3866 88.6871 51.151 89.5052 50.9657 90.3061L50.3125 93.1561C50.2573 93.3996 50.2556 93.6723 50.3719 94.0467L50.8469 95.5311L51.2329 96.8967L52.3313 97.4014L53.6375 98.0249C54.6753 98.5114 55.7279 99.0945 56.7844 99.7764L58.1797 100.697L58.8329 101.112L59.7235 100.519L61.1782 99.4796L61.2672 98.0249L61.386 96.3624C61.434 95.5633 61.3607 94.8791 61.2375 94.3139L60.9407 92.8889L60.6141 91.4639C60.3866 90.4182 60.2195 89.3672 60.0797 88.3171L59.8719 86.8921L59.6938 85.4671C59.577 84.59 59.4172 83.704 59.2485 82.8249L58.7141 79.9749C58.4586 78.6391 58.4256 77.2853 58.5954 75.9374L58.9516 73.0874C59.1478 71.5371 59.6937 70.0839 60.4954 68.753L61.3563 67.328L62.0094 66.2296L61.5344 65.2202L60.8516 63.7952C60.249 62.5304 59.8309 61.1938 59.6047 59.8171L59.3672 58.303L59.1 56.7592C58.7185 54.4148 59.5464 52.2852 61.2079 50.7327L62.3954 49.6342L63.5829 48.5061C64.5723 47.5819 65.6388 46.7845 66.7891 46.1905L69.1047 45.003C69.452 44.8237 69.8876 44.5003 70.3813 43.9936L72.5782 41.7374C74.0563 40.2167 76.0059 39.4398 78.1594 39.5702L79.6735 39.6592L81.2172 39.7483C82.7837 39.8437 84.2748 40.281 85.6704 40.9952L87.0954 41.7077L88.5204 42.4499C90.2334 43.3265 91.5621 44.6899 92.35 46.4577L93.0032 47.9124L93.6266 49.3671C94.2309 50.7262 94.6148 52.1617 94.6954 53.6421L94.7547 55.1264L94.8438 56.5811L95.111 60.8561L95.2297 62.2811C95.3457 63.9469 94.9799 65.5563 94.2797 67.0311L93.5969 68.4561L92.9438 69.7921L93.4782 71.128L94.0422 72.553C94.6246 74.0165 94.8684 75.5681 94.725 77.1546L94.4875 80.0046C94.4187 80.7678 94.4139 81.5286 94.4579 82.2905L94.5172 83.7155L94.6063 85.1405C94.6605 86.0806 94.7262 87.0207 94.7844 87.9608L94.9625 90.8108C95.0131 91.6275 95.1027 92.4171 95.2297 93.1561L95.4672 94.4921L95.675 95.828C95.7492 96.2565 95.8738 96.5081 95.9719 96.6592L96.625 97.6389L97.0704 98.3217L98.0797 98.5889L99.2672 98.8561L100.366 98.3811L100.87 98.1436L101.019 97.6686L101.316 96.5108C101.468 95.9051 101.599 95.1952 101.702 94.403L102.058 91.6717C102.215 90.4566 102.49 89.2363 102.919 88.0499L103.453 86.6249L103.958 85.1999C104.249 84.3928 104.49 83.5863 104.67 82.7952L105.323 79.9452C105.368 79.7441 105.367 79.5442 105.264 79.2624L104.73 77.8374L104.225 76.4124C103.785 75.2113 103.465 73.9775 103.305 72.7311L102.948 69.8811C102.738 68.2428 102.963 66.6392 103.572 65.1311L104.166 63.7061L104.73 62.2811C104.902 61.8559 104.937 61.5087 104.908 61.2124L104.759 59.7874L104.641 58.3624C104.579 57.7318 104.427 57.0915 104.195 56.4327L103.691 55.0077L103.216 53.6124C102.847 52.5641 102.544 51.5217 102.295 50.4952L101.642 47.8233C101.442 46.9972 101.207 46.1639 100.959 45.3296L100.544 43.9639L100.158 42.628C100.092 42.4058 99.9981 42.2418 99.8313 42.0936L98.7922 41.1733L97.7235 40.253C96.6603 39.3084 95.7909 38.1596 95.0813 36.8983L94.2797 35.4733L93.7157 34.4639L92.736 34.4342L91.1625 34.4046C90.3403 34.3826 89.5792 34.4133 88.8766 34.5233L87.4219 34.7608L85.9969 34.9983C84.8001 35.1866 83.6007 35.2324 82.4047 35.1764L80.9797 35.1171L79.5844 35.0577C79.1967 35.0395 78.8418 35.0932 78.486 35.2358L77.1797 35.7702L75.8735 36.2749C75.1294 36.5745 74.3931 36.9371 73.6766 37.3139L71.1829 38.6202C70.5862 38.9349 70.0023 39.3188 69.4313 39.778L68.2735 40.6983L67.3235 41.4405V41.8561L67.2641 42.8952C67.2509 43.2063 67.2063 44.0701 66.7297 44.9436C66.4528 45.4474 65.9223 46.123 65.0375 46.5764C64.1144 47.0483 63.1835 47.0795 62.4547 46.9327C61.2691 46.6915 60.5104 45.989 60.2875 45.7749C59.9513 45.4517 59.6709 45.0869 59.4563 44.7952L58.536 43.5483L57.6157 42.3311C57.043 41.5526 56.4741 40.7848 55.8938 40.0749L54.9735 38.9467L54.0235 37.7889C53.7658 37.4758 53.4577 37.2688 53.1032 37.1061L51.7969 36.4827L50.461 35.8592C49.6828 35.5022 48.8842 35.1861 48.086 34.9092L45.3547 33.9592C44.7772 33.7589 44.1712 33.6401 43.5438 33.603L42.0594 33.5139L40.6047 33.4546C40.2163 33.4321 39.8656 33.4818 39.5063 33.6327ZM276.234 8.24987L274.988 8.8733L274.75 9.97174L274.423 11.3671C274.299 11.9035 274.282 12.4172 274.334 12.9108L274.483 14.3358L274.631 15.7311C274.765 16.9555 274.75 18.1835 274.602 19.4124L274.423 20.8374L274.275 22.2624C274.139 23.3823 273.909 24.5097 273.622 25.6171L273.266 27.0421L272.88 28.4671C272.641 29.3856 272.412 30.3099 272.197 31.228L271.544 34.078C271.468 34.4021 271.452 34.7168 271.544 35.0577L271.959 36.4827L272.345 37.9077C272.578 38.7578 272.837 39.633 273.147 40.4905L273.652 41.9155L274.186 43.3405C274.867 45.2354 274.78 47.1991 273.978 49.0108L273.325 50.4358L272.702 51.8608C272.433 52.4671 272.304 53.0179 272.256 53.5233L272.108 54.9483L271.989 56.3733C271.949 56.8032 271.987 57.2488 272.138 57.7389L272.553 59.1639L272.998 60.5889C273.349 61.7274 273.61 62.9024 273.77 64.0624L273.978 65.4874L274.156 66.9124C274.377 68.5216 274.189 70.1021 273.622 71.603L273.088 73.028L272.523 74.453C272.284 75.0841 272.18 75.7018 272.138 76.2639L271.9 79.1139C271.898 79.1624 271.923 79.3277 272.138 79.678L272.998 81.103L273.889 82.528C273.951 82.6295 273.979 82.7513 274.038 82.8546L274.245 82.7655L275.73 82.2014C276.743 81.9428 277.786 81.9257 278.817 82.1421L280.331 82.6467L283.122 83.8936C283.329 83.9879 283.517 84.1417 283.716 84.2499L283.508 83.8342L282.825 82.4092C281.89 80.4508 281.867 78.3258 282.736 76.353L283.389 74.8983L284.013 73.4436L284.814 72.078C285.153 71.6217 285.566 71.175 286.091 70.8014C287.198 70.0127 288.477 69.7169 289.713 69.8217L290.989 69.9405L292.236 70.0592C294.074 70.2233 295.476 71.1317 296.422 72.3749L297.223 73.7108L297.817 75.0467L298.411 76.353C298.434 76.3676 298.488 76.3822 298.559 76.4124L300.044 77.0358L301.558 77.6889C303.031 78.3107 304.369 79.2003 305.417 80.4499L306.308 81.5483L307.228 82.6467C307.815 83.3471 308.431 84.0407 309.039 84.7249L310.939 86.8624C311.71 87.7315 312.402 88.6642 313.017 89.653L313.789 90.8702L314.531 92.0874C315.015 92.865 315.512 93.6434 316.016 94.403L316.817 95.5905L317.589 96.778C317.842 97.1586 318.078 97.3636 318.242 97.4608L319.311 98.0842L320.409 98.7374C320.859 99.0022 321.487 99.2862 322.309 99.5686L323.586 99.9842L324.18 98.7967C324.471 98.1746 324.615 97.6767 324.655 97.2827L324.773 95.9467L324.863 94.6702L324.091 93.6014L323.259 92.4436C322.787 91.7973 322.265 91.1789 321.716 90.5733L320.766 89.5046L319.816 88.4655C319.209 87.7965 318.579 87.1244 317.945 86.4764L316.936 85.4671L315.927 84.428C315.144 83.6271 314.425 82.7725 313.759 81.8749L312.898 80.7171L312.067 79.5592C311.513 78.8098 310.939 78.0744 310.375 77.3327L308.653 75.0764C308.101 74.351 307.533 73.6183 306.961 72.9092L306.07 71.7811L305.18 70.6827C304.371 69.6814 303.653 68.5441 303.042 67.2983L302.27 65.7249L301.498 64.1217C301.042 63.1858 300.659 61.9258 300.875 60.4999C301.112 58.9536 301.977 57.7764 303.013 56.9967L304.141 56.1358L305.298 55.2749C306.312 54.5118 307.412 53.8611 308.594 53.3452L309.989 52.7514L311.355 52.128C312.144 51.7837 312.91 51.414 313.611 50.9999L314.858 50.2577L316.134 49.5155C316.312 49.4091 316.445 49.2516 316.58 48.9811L317.263 47.6155L317.945 46.2796C318.509 45.1456 319.16 44.0702 319.934 43.103L320.825 42.0046L321.716 40.8764C322.345 40.0905 323.043 39.2994 323.764 38.4717L324.803 37.2842L325.159 36.8389L324.833 36.1858L324.239 35.0874L323.378 35.028L321.894 34.9092C321.403 34.8697 321.156 34.928 321.063 34.9686L319.905 35.4733L318.777 35.978C318.296 36.1869 317.747 36.4807 317.173 36.8983L316.045 37.7592L314.888 38.5905C314.417 38.933 314.005 39.3344 313.641 39.8077L312.75 40.9358L311.889 42.0936C310.759 43.5648 309.224 44.4961 307.525 45.003L304.438 45.953H304.378L303.784 47.1702L303.102 48.5061C302.606 49.4563 302.073 50.3906 301.528 51.2967L300.786 52.5436L300.014 53.8202C299.254 55.0822 298.267 56.1582 297.075 57.0264L295.917 57.8874L294.73 58.7186C294.16 59.1333 293.651 59.6042 293.186 60.1139L292.236 61.1827L291.256 62.2217C290.975 62.5305 290.576 62.9331 290.069 63.2608C289.586 63.5708 288.69 64.0168 287.516 63.9733C286.162 63.9222 285.107 63.2388 284.458 62.4592C283.899 61.7853 283.659 61.0596 283.538 60.6186L283.211 59.5202L282.914 58.4217C282.534 57.0413 282.545 55.616 282.766 54.2655L283.003 52.8405L283.211 51.4155C283.37 50.4387 283.562 49.4528 283.745 48.4764L284.28 45.6264C284.357 45.2064 284.352 44.785 284.25 44.3499L283.923 42.9249L283.567 41.4999C283.274 40.2477 283.147 38.9776 283.181 37.6999L283.211 36.2749L283.27 34.8499C283.292 34.0784 283.239 33.2792 283.152 32.5046L282.855 29.6546C282.721 28.4581 282.691 27.2607 282.795 26.0624L283.033 23.2124C283.111 22.3165 283.171 21.4062 283.211 20.5108L283.27 19.0858L283.359 17.6608C283.384 17.0823 283.326 16.4996 283.181 15.9092L282.825 14.5139L282.469 13.0889C282.326 12.5073 282.118 11.9986 281.845 11.5452L280.42 9.17018C280.378 9.09957 280.284 8.9546 279.975 8.81393L278.58 8.19049L277.422 7.6858L276.234 8.24987ZM276.234 90.2764L275.373 90.6624C275.382 91.517 275.418 92.3583 275.373 93.1858L275.284 94.5514L275.225 95.8874C275.222 95.9489 275.223 96.0058 275.225 96.0358L275.73 96.8374L276.353 97.7577C276.455 97.9151 276.648 98.1589 277.036 98.4405L278.105 99.2124L278.283 99.3311L279.055 98.9155L279.797 98.4405L279.916 97.8171L280.123 96.6592C280.254 95.9563 280.387 95.1762 280.509 94.3139L280.717 92.9483L280.836 91.8796L280.42 91.1671C280.378 91.0964 280.284 90.9515 279.975 90.8108L278.58 90.1874L277.422 89.653L276.234 90.2764ZM222.441 33.2467L221.016 33.6624L219.62 34.078C219.057 34.2465 218.529 34.4907 218.047 34.8202L216.83 35.6514L215.642 36.4827C214.912 36.9825 214.206 37.4838 213.564 37.9967L212.466 38.8874L211.397 39.7483C210.614 40.3737 209.81 40.9831 208.992 41.5592L207.864 42.3311L206.736 43.1327C206.05 43.6159 205.336 44.14 204.628 44.7061L202.313 46.5467C201.761 46.9882 201.249 47.5066 200.769 48.0905L199.819 49.278L198.839 50.4655C198.716 50.6179 198.673 50.7379 198.661 50.9405L198.572 52.4546L198.483 53.9983C198.444 54.728 198.48 55.4394 198.602 56.1358L199.136 59.1046C199.453 60.9355 199.149 62.7316 198.305 64.3592L197.592 65.7249L196.88 67.1202C196.643 67.5779 196.513 67.9987 196.494 68.3967L196.375 71.3061C196.36 71.6255 196.417 71.9402 196.583 72.2858L197.236 73.6514L197.919 75.0171C198.37 75.9438 198.789 76.8652 199.195 77.7483L200.383 80.3014C200.973 81.5837 201.327 82.9561 201.452 84.3686L201.57 85.9124L201.689 87.4264C201.727 87.8655 201.871 88.2227 202.075 88.5546L202.847 89.8311L203.559 90.9592L203.589 90.9889L205.222 91.3155L206.855 91.6717C208.252 91.9657 209.604 92.4385 210.803 93.1561L213.059 94.5217C213.737 94.9275 214.447 95.3181 215.167 95.6796L216.384 96.2733L217.602 96.8967C218.058 97.1246 218.54 97.2855 219.056 97.3717L220.392 97.5796L221.758 97.8171C222.924 98.0114 224.073 98.3291 225.202 98.7671L226.538 99.2717C227.144 98.8733 227.746 98.7251 228.052 98.6483C228.79 98.4643 229.563 98.4278 230.159 98.4405L231.525 98.4702L232.92 98.4999C233.592 98.5136 234.264 98.4675 234.939 98.3514L236.305 98.1139L237.7 97.8764C238.231 97.7842 238.738 97.6182 239.214 97.3717L240.431 96.7186L241.678 96.0952C242.927 95.449 244.277 95.0247 245.686 94.8186L247.259 94.6108L248.298 94.4327L248.744 93.5124L249.367 92.0874C249.883 90.9136 250.506 89.8214 251.238 88.8217L252.069 87.6936L252.9 86.5358C253.085 86.2793 253.189 86.0354 253.227 85.7639L253.405 84.3983L253.553 83.0921L252.989 82.2608L252.573 81.6671L251.92 81.6077L250.673 81.4889L250.555 81.5186L249.516 82.053L248.506 82.6171C248.45 82.6472 248.271 82.7663 248.002 83.1514L247.17 84.3092L246.369 85.4374C245.689 86.4083 244.919 87.3448 244.053 88.1983L242.984 89.2374L241.916 90.3061C240.975 91.2326 239.92 92.0328 238.769 92.7108L237.403 93.4827L236.067 94.2842C234.555 95.1745 232.871 95.5979 231.109 95.5311L229.595 95.4717L228.052 95.4124C226.331 95.3471 224.706 94.8359 223.272 93.8686L222.025 93.0374L220.748 92.1764C219.666 91.4447 218.686 90.6032 217.869 89.6233L216.206 87.6046C215.884 87.2177 215.452 86.8383 214.93 86.4764L213.772 85.6749L212.614 84.8436C211.299 83.9327 210.263 82.739 209.556 81.3108L208.903 80.0046L208.28 78.6983C207.435 76.9827 207.261 75.1328 207.716 73.3249L208.102 71.8405L208.458 70.3858C208.607 69.793 208.65 69.2832 208.606 68.8421L208.458 67.4467L208.339 66.0811C208.257 65.2571 208.136 64.3939 207.983 63.4983L207.716 62.0139L207.478 60.5592C207.212 59.0018 207.308 57.4411 207.775 55.928L208.191 54.5327L208.636 53.1374C209.089 51.6707 209.831 50.3257 210.863 49.1889L211.872 48.1202L212.852 47.0217C213.571 46.2289 214.331 45.4754 215.108 44.7358L216.147 43.6967L217.216 42.6874C218.507 41.4578 220.096 40.8826 221.728 40.9061L223.361 41.1139L224.845 41.4999L226.359 41.8858C226.803 41.9981 227.1 41.9718 227.309 41.9155L228.675 41.5592L230.011 41.203C231.486 40.8072 233.002 40.762 234.494 41.0249L235.978 41.2624L237.433 41.5296C239.367 41.8703 241.011 42.8883 242.183 44.4686L243.073 45.6858L243.964 46.8733C244.561 47.6817 245.156 48.4757 245.716 49.2483L246.547 50.4061L247.348 51.5342C247.659 51.963 248.002 52.3009 248.358 52.5436L249.456 53.2858L250.584 54.028C250.613 54.0321 250.668 54.0339 250.763 54.028L252.277 53.9389L253.583 53.8499L254.622 52.4842L255.334 51.5639L254.948 50.703L254.325 49.2186C253.945 48.327 253.542 47.5063 253.138 46.7546L252.455 45.4483L251.742 44.1421C251.514 43.7218 251.239 43.3678 250.881 43.0733L248.625 41.2327C247.891 40.6316 247.136 40.0351 246.398 39.4514L245.27 38.5311L244.113 37.6405C243.583 37.2225 243.01 36.8673 242.391 36.5717L241.084 35.9483L239.778 35.2952C239.349 35.0902 238.894 34.9975 238.413 34.9686L236.958 34.8796L235.473 34.7905C234.4 34.7276 233.342 34.6163 232.297 34.4639L230.872 34.2561L229.477 34.0483C228.527 33.9095 227.552 33.7561 226.567 33.603L225.083 33.3952L223.628 33.1577C223.211 33.093 222.831 33.1312 222.441 33.2467ZM153.892 38.2936C155.772 38.2729 157.534 38.8785 159.028 40.0155L160.245 40.9358L161.492 41.8858C162.197 42.4219 162.922 42.9087 163.659 43.3405L164.966 44.1124L166.272 44.8546C167.618 45.6432 168.637 46.7785 169.241 48.1499L169.686 49.6046L170.339 52.5733C170.611 53.8359 170.728 55.1046 170.695 56.3733L170.636 59.2233C170.618 59.9288 170.671 60.6066 170.784 61.2421L171.022 62.578L171.259 63.9436C171.37 64.5581 171.556 65.2414 171.853 65.9921L172.447 67.4467L173.011 68.8717C173.703 70.6186 173.786 72.5028 173.159 74.3342L172.209 77.1249C171.87 78.1103 171.497 79.0854 171.111 80.0342L170.577 81.3405L170.042 82.6764C169.554 83.8779 168.903 85.0018 168.113 86.0311L167.252 87.1592L166.361 88.3171C165.326 89.6616 163.973 90.6568 162.353 91.1967L160.988 91.6421L159.652 92.0874C158.773 92.3792 157.903 92.6801 157.039 92.978L155.703 93.4233L154.397 93.8686C153.9 94.0399 153.374 94.2116 152.883 94.3139C152.643 94.3639 152.295 94.4203 151.903 94.4327C151.679 94.4397 151.024 94.3875 150.241 94.0764C150.102 94.086 149.919 94.1153 149.706 94.1358L148.192 94.2842L146.648 94.4327C145.541 94.5394 144.344 94.3905 143.205 93.8092C142.073 93.2303 141.246 92.3689 140.681 91.4342L139.88 90.0983L139.048 88.7327C138.589 87.9726 138.144 87.3332 137.713 86.803L136.852 85.7639L136.02 84.6952C135.419 83.9573 134.798 83.1813 134.18 82.3499L133.289 81.1624L132.398 79.9452C131.46 78.681 130.825 77.256 130.558 75.6999L130.32 74.2452L130.083 72.8202C129.755 70.9009 130.154 69.059 131.063 67.4467L131.864 66.0217L132.428 64.953L131.834 63.7952L131.033 62.2514C130.135 60.5454 129.773 58.6283 130.231 56.6405L130.558 55.1561L130.914 53.6717L131.389 52.2467C131.999 50.8962 132.986 49.7967 134.239 48.9811L136.97 47.1999C137.379 46.9325 137.644 46.6395 137.831 46.3092L138.603 44.9436L139.345 43.6077C140.313 41.8861 141.809 40.6413 143.68 40.0155L145.164 39.5405L146.619 39.0358C147.972 38.5839 149.378 38.3687 150.805 38.353L153.892 38.2936ZM137.98 56.878L137.623 58.3327V58.4217C137.631 58.4616 137.658 58.5586 137.742 58.7186L139.345 61.7467C140.445 63.8313 140.497 66.1958 139.286 68.3374L137.683 71.1874C137.6 71.3366 137.571 71.4226 137.564 71.4546V71.5139L137.802 72.9686L138.069 74.4233C138.132 74.7795 138.246 75.112 138.484 75.4327L140.266 77.8077C140.827 78.5629 141.372 79.2701 141.898 79.9155L142.759 80.9546L143.591 81.9936C144.286 82.8463 144.961 83.7896 145.58 84.8139L146.381 86.1499L146.767 86.803L147.45 86.7436L148.994 86.5952C149.545 86.542 150.084 86.481 150.538 86.4764C150.759 86.4745 151.045 86.5041 151.339 86.5358C151.425 86.545 151.61 86.6229 151.873 86.6842H151.903L153.239 86.2389L154.545 85.7936C155.434 85.4872 156.344 85.1733 157.247 84.8733L158.613 84.428L159.948 83.9827C160.107 83.9299 160.209 83.8478 160.334 83.6858L161.225 82.5577L162.086 81.3999C162.461 80.911 162.775 80.3935 163.006 79.8264L164.075 77.1546C164.406 76.3411 164.732 75.5134 165.025 74.6608L165.975 71.8702V71.8108C165.97 71.7885 165.967 71.7474 165.945 71.6921L165.381 70.2374L164.788 68.8124C164.325 67.6462 163.989 66.4577 163.778 65.2796L163.541 63.9139L163.303 62.578C163.096 61.4188 163.006 60.2394 163.036 59.0452L163.066 57.6202L163.095 56.1655C163.111 55.5417 163.069 54.8802 162.917 54.1764L162.591 52.6921L162.264 51.3264L161.136 50.6733L159.8 49.9014C158.797 49.3136 157.829 48.6558 156.891 47.9421L155.644 46.9921L154.427 46.0421C154.274 45.9261 154.164 45.8917 153.981 45.8936L152.438 45.9233H150.894C150.258 45.9303 149.628 46.0479 149.023 46.2499L147.569 46.7546L146.084 47.2296C146.052 47.2408 146.034 47.2545 146.025 47.2592C146.02 47.2654 145.987 47.2809 145.966 47.3186L145.223 48.6842L144.452 50.0202C143.631 51.4795 142.492 52.6761 141.097 53.5827L139.731 54.4733L138.395 55.3342C138.362 55.3559 138.322 55.381 138.306 55.3936L138.277 55.4233L137.98 56.878ZM304.408 45.8936H304.467V45.8342L304.408 45.8936ZM189.636 58.9858V60.4702C189.632 61.4888 189.625 62.4986 189.577 63.4983L189.488 64.9233V65.1905C189.667 64.6578 189.849 64.1231 190.111 63.6171L190.823 62.2217L191.566 60.8561C191.668 60.6579 191.648 60.5447 191.625 60.4108L191.388 58.9264L191.12 57.4421C190.898 56.169 190.813 54.8795 190.883 53.5827L190.972 52.0686L191.061 50.5249C191.161 48.7074 191.805 47.0344 192.961 45.6264L193.941 44.4389L194.891 43.2811C195.697 42.3001 196.612 41.4226 197.592 40.6389L198.72 39.7186L199.878 38.7983C200.7 38.1411 201.522 37.5059 202.342 36.928L203.47 36.1264L204.628 35.3249C205.315 34.8405 205.989 34.3367 206.647 33.8108L207.745 32.9499L208.814 32.0592C209.611 31.4223 210.46 30.8189 211.338 30.2186L213.772 28.5561C214.898 27.7867 216.116 27.1966 217.423 26.8046L218.848 26.3889L220.244 25.9436C221.725 25.5007 223.259 25.4111 224.786 25.6467L226.27 25.8842L227.725 26.0921C228.69 26.2422 229.647 26.4018 230.575 26.5374L231.97 26.7452L233.395 26.953C234.217 27.0728 235.059 27.1401 235.919 27.1905L237.373 27.2796L238.858 27.3686C240.317 27.4548 241.725 27.8078 243.044 28.4374L244.35 29.0905L245.686 29.7139C246.808 30.251 247.859 30.9041 248.833 31.6733L249.991 32.5936L251.119 33.4842C251.89 34.0949 252.668 34.7264 253.434 35.3546L255.691 37.1952C256.828 38.128 257.755 39.2546 258.452 40.5499L259.134 41.8561L259.847 43.1327C260.37 44.1049 260.869 45.137 261.331 46.2202L262.578 49.1889C263.027 50.2421 263.239 51.4409 263.053 52.6921C262.868 53.9326 262.339 55.0042 261.658 55.8686L260.589 57.2046L259.55 58.5405C258.285 60.1457 256.487 61.269 254.266 61.4202L252.781 61.5092L251.297 61.628C249.557 61.7464 247.803 61.3613 246.28 60.3217L245.181 59.5499L244.083 58.8077C242.964 58.0443 241.999 57.0849 241.203 55.9874L240.372 54.8592L239.541 53.7014C238.997 52.9509 238.43 52.1738 237.848 51.3858L236.958 50.1983L236.067 48.9811L234.642 48.7436L233.158 48.5061C232.695 48.4259 232.326 48.4501 232 48.5358L229.269 49.2483C227.675 49.6746 226.051 49.6433 224.489 49.2483L223.005 48.8624L221.995 48.6249L221.402 49.2186L220.333 50.228C219.69 50.8406 219.058 51.4721 218.463 52.128L217.483 53.2264L216.503 54.2952C216.219 54.6079 216.034 54.9636 215.909 55.3639L215.464 56.7592L215.019 58.1842C214.912 58.5358 214.892 58.8892 214.959 59.2827L215.227 60.7374L215.464 62.2217C215.643 63.2731 215.779 64.3028 215.88 65.3092L216.028 66.7046L216.177 68.0702C216.316 69.4643 216.163 70.8616 215.82 72.2264L215.108 75.1952C215.097 75.2384 215.08 75.2652 215.078 75.2842V75.3436L215.731 76.6499L216.355 77.9264C216.499 78.2202 216.679 78.4431 216.919 78.6092L218.106 79.4108L219.264 80.2124C220.302 80.9309 221.228 81.7802 222.025 82.7358L222.886 83.7452L223.717 84.7546C224.015 85.1106 224.444 85.4914 225.023 85.8827L226.27 86.7436L227.517 87.5749C227.753 87.7337 227.996 87.8278 228.319 87.8421L231.406 87.9608C231.69 87.9716 231.934 87.9117 232.208 87.753L233.573 86.9514L234.909 86.1499C235.545 85.7752 236.093 85.3456 236.572 84.8733L237.641 83.8342L238.709 82.7655C239.262 82.2201 239.737 81.6687 240.134 81.103L240.966 79.9452L241.767 78.7874C242.576 77.6326 243.606 76.6088 244.914 75.9077L245.923 75.3733L246.963 74.8092C248.333 74.0763 249.824 73.7905 251.327 73.9186L252.544 74.0374L253.791 74.1264C255.269 74.2544 256.568 74.8605 257.591 75.8186L258.541 76.9171L259.966 78.9952C261.03 80.5427 261.366 82.3183 261.123 84.0717L260.916 85.4374L260.738 86.803C260.522 88.3482 259.933 89.7957 259.016 91.0483L257.353 93.3046C256.98 93.8145 256.631 94.4233 256.314 95.1452L255.067 97.9952C254.111 100.178 252.243 101.546 249.931 101.884L246.784 102.359C246.1 102.46 245.58 102.629 245.181 102.834L243.934 103.487L242.688 104.111C241.518 104.716 240.275 105.134 238.977 105.358L236.245 105.833C235.091 106.032 233.909 106.125 232.742 106.1L231.377 106.07L230.813 106.04C229.593 107.414 227.903 107.501 227.369 107.465C226.528 107.407 225.728 107.117 225.172 106.901L223.806 106.397L222.47 105.862C221.79 105.598 221.13 105.401 220.511 105.298L219.145 105.09L217.809 104.853C216.544 104.642 215.334 104.241 214.188 103.665L212.97 103.072L211.783 102.478C210.896 102.033 210.013 101.557 209.17 101.053L208.042 100.37L206.884 99.6874C206.562 99.4944 206.052 99.2554 205.281 99.0936L203.648 98.7671L202.016 98.4108C200.047 97.9937 198.308 96.918 197.177 95.0858L196.375 93.8092L195.603 92.5327C194.765 91.1702 194.257 89.6682 194.119 88.0796L193.881 85.0514C193.828 84.4383 193.664 83.9092 193.466 83.478L192.278 80.9249C191.895 80.0929 191.491 79.2247 191.061 78.3421L190.408 76.9764L189.755 75.6405C189.479 75.0737 189.322 74.4568 189.161 73.8592C189.049 74.5225 188.875 75.1755 188.656 75.8186L188.181 77.1842L187.736 78.5202C187.545 79.08 187.42 79.6694 187.38 80.3014L187.202 83.2108C187.133 84.3302 186.987 85.4777 186.786 86.6249L186.519 88.1389L186.252 89.6827C185.843 91.9915 184.417 93.7173 182.392 94.6702L180.908 95.3827L179.423 96.0655C178.848 96.3359 178.504 96.6222 178.295 96.8671L176.455 99.0046C175.448 100.186 174.212 101.092 172.773 101.676L167.548 103.814L166.272 104.319L164.995 104.853C164.278 105.145 163.534 105.505 162.769 105.922L161.463 106.634L160.127 107.347C158.93 107.998 157.662 108.463 156.327 108.683L155.97 108.742L156.891 108.861C157.718 108.966 158.58 109.037 159.444 109.069L160.898 109.098L162.353 109.158C163.825 109.212 165.259 109.553 166.598 110.167L167.934 110.79L169.241 111.384C170.38 111.907 171.456 112.551 172.447 113.314L174.763 115.095C175.519 115.678 176.286 116.263 177.048 116.847L179.364 118.628C180.454 119.464 181.387 120.458 182.155 121.597L182.986 122.814L183.788 124.031C184.273 124.753 184.794 125.479 185.361 126.198L186.311 127.386L187.231 128.573C188.288 129.916 188.94 131.472 189.131 133.175L189.309 134.659L189.458 136.173C189.583 137.304 189.669 138.441 189.666 139.558L189.636 141.012V142.467C189.632 143.486 189.625 144.496 189.577 145.495L189.488 146.92V147.187C189.667 146.655 189.849 146.12 190.111 145.614L190.823 144.219L191.566 142.853C191.667 142.655 191.648 142.542 191.625 142.408L191.388 140.923L191.12 139.439C190.898 138.166 190.813 136.877 190.883 135.58L190.972 134.065L191.061 132.522C191.162 130.705 191.804 129.031 192.961 127.623L193.941 126.465L194.891 125.278C195.697 124.297 196.612 123.419 197.592 122.636L198.72 121.715L199.878 120.795C200.7 120.138 201.522 119.503 202.342 118.925L203.47 118.123L204.628 117.322C205.315 116.837 205.989 116.334 206.647 115.808L207.745 114.947L208.814 114.086C209.614 113.446 210.457 112.818 211.338 112.215L213.772 110.553C214.898 109.784 216.117 109.193 217.423 108.801L218.848 108.386L220.244 107.97C221.725 107.527 223.26 107.408 224.786 107.644L226.27 107.881L227.725 108.119C228.689 108.269 229.647 108.399 230.575 108.534L231.97 108.742L233.395 108.95C234.218 109.07 235.059 109.167 235.919 109.217L237.373 109.276L238.858 109.365C240.318 109.452 241.724 109.833 243.044 110.464L244.35 111.087L245.686 111.711C246.808 112.248 247.859 112.901 248.833 113.67L249.991 114.59L251.119 115.481C251.891 116.092 252.667 116.723 253.434 117.351L255.691 119.192C256.828 120.125 257.755 121.252 258.452 122.547L259.134 123.853L259.847 125.13C260.369 126.101 260.87 127.135 261.331 128.217L262.578 131.186C263.027 132.238 263.238 133.439 263.053 134.689C262.868 135.929 262.338 137.001 261.658 137.865L260.589 139.201L259.55 140.537C258.285 142.143 256.487 143.266 254.266 143.417L252.781 143.506L251.297 143.625C249.557 143.743 247.803 143.358 246.28 142.319L245.181 141.576L244.083 140.805C242.966 140.043 241.998 139.109 241.203 138.014L239.541 135.698C238.997 134.948 238.43 134.17 237.848 133.383L236.958 132.195L236.067 130.978L234.642 130.77L233.158 130.503C232.695 130.423 232.325 130.447 232 130.533L229.269 131.245C227.675 131.672 226.051 131.64 224.489 131.245L223.005 130.859L221.995 130.622L221.402 131.215L220.333 132.225C219.689 132.838 219.058 133.468 218.463 134.125L216.503 136.322C216.223 136.632 216.033 136.965 215.909 137.361L215.464 138.756L215.019 140.181C214.912 140.533 214.892 140.885 214.959 141.28L215.227 142.734L215.464 144.219C215.644 145.276 215.778 146.324 215.88 147.336L216.177 150.067C216.316 151.46 216.163 152.859 215.82 154.223L215.108 157.192C215.097 157.235 215.08 157.261 215.078 157.281V157.34L215.731 158.647L216.355 159.953C216.498 160.242 216.682 160.442 216.919 160.606L218.106 161.408L219.264 162.209C220.301 162.927 221.228 163.778 222.025 164.733L222.886 165.742L223.717 166.751C224.015 167.108 224.443 167.488 225.023 167.88L226.27 168.74L227.517 169.572C227.753 169.731 227.996 169.825 228.319 169.839L231.406 169.958C231.69 169.968 231.934 169.909 232.208 169.75L233.573 168.948L234.909 168.147C235.544 167.772 236.093 167.342 236.572 166.87L237.641 165.831L238.709 164.762C239.262 164.217 239.738 163.666 240.134 163.1L240.966 161.942L241.767 160.784C242.575 159.63 243.606 158.606 244.914 157.905L245.923 157.37L246.963 156.806C248.332 156.074 249.825 155.817 251.327 155.945L252.544 156.034L253.791 156.153C255.274 156.282 256.567 156.88 257.591 157.845L258.541 158.914L259.966 160.992C261.033 162.543 261.369 164.341 261.123 166.098L260.916 167.464L260.738 168.83C260.52 170.369 259.93 171.796 259.016 173.045L257.353 175.301C256.98 175.811 256.631 176.42 256.314 177.142L255.067 179.992C254.111 182.175 252.243 183.543 249.931 183.881L246.784 184.356C246.101 184.456 245.58 184.626 245.181 184.831L243.934 185.484L242.688 186.108C241.517 186.713 240.275 187.131 238.977 187.355L236.245 187.83C235.091 188.028 233.909 188.122 232.742 188.097L231.377 188.067L230.813 188.037C229.593 189.413 227.903 189.498 227.369 189.462C226.528 189.404 225.728 189.114 225.172 188.898L223.806 188.394L222.47 187.859C221.79 187.595 221.13 187.398 220.511 187.295L219.145 187.087L217.809 186.85C216.547 186.639 215.331 186.265 214.188 185.692L212.97 185.069L211.783 184.475C210.896 184.03 210.013 183.554 209.17 183.05L208.042 182.367L206.884 181.684C206.562 181.491 206.052 181.282 205.281 181.12L203.648 180.764L202.016 180.437C200.044 180.021 198.309 178.918 197.177 177.083L196.375 175.806L195.603 174.53C194.766 173.168 194.257 171.664 194.119 170.076L193.881 167.048C193.828 166.435 193.664 165.906 193.466 165.475L192.278 162.922C191.895 162.09 191.491 161.222 191.061 160.339L190.408 158.973L189.755 157.637C189.478 157.07 189.322 156.455 189.161 155.856C189.049 156.519 188.875 157.172 188.656 157.815L188.181 159.181L187.736 160.517C187.543 161.082 187.419 161.69 187.38 162.328L187.202 165.237C187.133 166.352 186.986 167.479 186.786 168.622L186.519 170.136L186.252 171.68C185.844 173.989 184.417 175.714 182.392 176.667L180.908 177.38L179.423 178.062C178.848 178.333 178.504 178.619 178.295 178.864L177.375 179.933L176.455 181.031C175.45 182.206 174.206 183.091 172.773 183.673L167.548 185.811L166.272 186.315L164.995 186.85C164.279 187.142 163.534 187.502 162.769 187.919L161.463 188.631L160.127 189.344C158.929 189.996 157.663 190.489 156.327 190.709L155.02 190.917L153.744 191.125C153.23 191.209 152.396 191.322 151.547 191.184C151.123 191.115 150.311 190.902 149.528 190.264C148.986 189.822 148.619 189.254 148.37 188.631L147.747 188.394L146.381 187.859C145.701 187.596 145.04 187.425 144.422 187.325L143.086 187.117L141.75 186.88C140.483 186.674 139.249 186.29 138.098 185.722L136.881 185.128L135.694 184.534C134.804 184.095 133.928 183.607 133.081 183.109L131.923 182.456L130.795 181.773C130.471 181.583 129.934 181.365 129.163 181.209L127.559 180.883L125.927 180.556C123.947 180.157 122.176 179.091 121.028 177.261L119.425 174.708C118.581 173.352 118.088 171.84 117.941 170.255L117.792 168.74L117.673 167.226C117.617 166.616 117.457 166.113 117.258 165.683L116.664 164.376L116.07 163.1C115.684 162.271 115.256 161.426 114.823 160.547L114.17 159.181L113.488 157.815C112.775 156.361 112.438 154.783 112.508 153.155L112.567 151.7L112.627 150.215C112.695 148.669 113.113 147.194 113.814 145.822L114.527 144.426L115.239 143.061C115.346 142.853 115.353 142.724 115.328 142.586L115.061 141.101L114.794 139.647C114.566 138.373 114.491 137.057 114.556 135.758L114.645 134.244L114.705 132.73C114.796 130.906 115.449 129.216 116.605 127.801L117.555 126.644L118.534 125.456C119.338 124.473 120.228 123.57 121.206 122.784L122.334 121.864L123.492 120.944C124.314 120.283 125.136 119.654 125.956 119.073L128.213 117.47C128.899 116.985 129.575 116.484 130.231 115.956L131.33 115.095L132.398 114.205C133.194 113.564 134.047 112.941 134.922 112.334L136.109 111.503L137.327 110.672C138.45 109.893 139.672 109.293 140.978 108.89L142.403 108.475L143.798 108.03C145.277 107.575 146.811 107.451 148.341 107.673L149.142 107.762C148.82 107.403 148.543 107.045 148.37 106.605L147.747 106.397L146.381 105.862C145.701 105.599 145.04 105.428 144.422 105.328L143.086 105.09L141.75 104.883C140.483 104.677 139.249 104.293 138.098 103.725L136.881 103.131L135.694 102.537C134.804 102.098 133.928 101.61 133.081 101.112L131.923 100.459L130.795 99.7764C130.471 99.5859 129.934 99.3681 129.163 99.2124L127.559 98.8858L125.927 98.5592C123.948 98.1601 122.176 97.0927 121.028 95.2639L119.425 92.7108C118.58 91.3549 118.088 89.844 117.941 88.2577L117.792 86.7436L117.673 85.2296C117.617 84.6199 117.456 84.1153 117.258 83.6858L116.664 82.3796L116.07 81.103C115.685 80.2746 115.255 79.4288 114.823 78.5499L114.17 77.1842L113.488 75.8186C112.774 74.3634 112.438 72.787 112.508 71.1577L112.567 69.703L112.627 68.2186C112.695 66.6719 113.113 65.1973 113.814 63.8249L115.239 61.0342C115.341 60.8327 115.353 60.7251 115.328 60.5889L114.794 57.6202C114.567 56.3502 114.491 55.0556 114.556 53.7608L114.645 52.2467L114.705 50.7327C114.796 48.9091 115.449 47.2196 116.605 45.8046L117.555 44.6171L118.534 43.4592C119.338 42.4751 120.227 41.574 121.206 40.7874L122.334 39.8671L123.492 38.9467C124.314 38.2861 125.136 37.6574 125.956 37.0764L128.213 35.4733C128.898 34.988 129.576 34.4868 130.231 33.9592L131.33 33.0686L132.398 32.2077C133.194 31.5669 134.047 30.9436 134.922 30.3374L136.109 29.5061L137.327 28.6749C138.45 27.8967 139.672 27.2964 140.978 26.8936L142.403 26.4483L143.798 26.0327C145.278 25.5775 146.81 25.4539 148.341 25.6764L151.25 26.0921C152.203 26.2307 153.153 26.361 154.07 26.478L155.495 26.6858L156.891 26.8639C157.718 26.9693 158.58 27.0397 159.444 27.0717L160.898 27.1014L162.353 27.1608C163.825 27.2154 165.259 27.5561 166.598 28.1702L167.934 28.7936L169.241 29.3874C170.381 29.9101 171.456 30.5541 172.447 31.3171L174.763 33.0983C175.519 33.6812 176.286 34.2668 177.048 34.8499L179.364 36.6311C180.454 37.4673 181.387 38.4604 182.155 39.5999L182.986 40.8171L183.788 42.0342C184.273 42.7558 184.795 43.4825 185.361 44.2014L186.311 45.3889L187.231 46.5764C188.289 47.92 188.941 49.4742 189.131 51.178L189.309 52.6624L189.458 54.1764C189.583 55.3015 189.669 56.4193 189.666 57.5311L189.636 58.9858Z" fill="black"/>
</svg>
